<?xml version="1.0" standalone="no"?>
<!DOCTYPE svg PUBLIC "-//W3C//DTD SVG 20010904//EN"
 "http://www.w3.org/TR/2001/REC-SVG-20010904/DTD/svg10.dtd">
<svg version="1.0" xmlns="http://www.w3.org/2000/svg"
 width="1024.000000pt" height="1024.000000pt" viewBox="0 0 1024.000000 1024.000000"
 preserveAspectRatio="xMidYMid meet">

<g transform="translate(0.000000,1024.000000) scale(0.100000,-0.100000)"
fill="#000000" stroke="none">
<path d="M5256 9338 c-3 -106 -9 -241 -12 -300 l-6 -108 55 0 55 0 7 113 7
112 76 -3 c67 -3 81 0 112 20 42 28 47 49 49 183 2 151 -9 159 -215 170 l-122
6 -6 -193z m218 86 c13 -5 16 -22 16 -78 0 -97 -10 -111 -79 -101 l-53 7 6 46
c3 24 6 64 6 88 l0 44 44 0 c24 0 51 -3 60 -6z"/>
<path d="M4683 9513 c-27 -5 -27 21 -5 -333 l17 -264 50 2 c28 1 92 5 143 8
l93 6 -3 46 -3 45 -86 -2 -87 -2 -6 68 c-3 37 -8 118 -11 178 -3 61 -8 143
-11 183 l-6 72 -32 -1 c-17 -1 -41 -4 -53 -6z"/>
<path d="M4381 9484 c-57 -7 -106 -15 -109 -18 -5 -6 65 -576 73 -584 5 -5
216 14 268 24 27 6 28 8 22 47 -4 23 -9 44 -10 45 -2 2 -43 -1 -91 -7 -48 -6
-89 -9 -91 -8 -6 6 -25 158 -21 163 3 3 23 7 44 10 108 14 104 12 104 47 0 54
-8 59 -86 48 -38 -6 -72 -7 -75 -3 -4 4 -9 37 -13 74 l-6 67 32 5 c18 3 59 9
91 13 32 4 58 11 57 16 0 4 0 23 0 42 0 35 0 35 -42 34 -24 -1 -90 -8 -147
-15z"/>
<path d="M5696 9489 c-5 -16 -58 -507 -60 -554 -1 -29 0 -30 51 -33 61 -4 56
-15 73 147 5 58 12 106 14 108 8 8 121 -13 121 -22 0 -6 -6 -63 -14 -129 -16
-134 -15 -136 55 -136 l41 0 6 58 c3 31 20 162 36 291 17 129 29 236 27 238
-2 2 -26 6 -54 10 l-51 6 -5 -34 c-3 -19 -10 -70 -16 -113 -6 -44 -12 -82 -15
-84 -2 -2 -31 -1 -65 3 l-61 7 6 32 c10 57 23 201 19 205 -2 2 -26 6 -54 9
-37 3 -51 1 -54 -9z"/>
<path d="M4088 9443 c-16 -2 -28 -7 -28 -11 0 -4 14 -77 30 -162 16 -85 30
-161 30 -169 0 -8 -15 10 -33 40 -59 97 -145 234 -159 252 -12 16 -19 17 -66
7 -38 -9 -52 -16 -52 -29 0 -21 108 -563 114 -568 4 -5 86 13 93 21 4 3 -8 81
-26 172 -18 91 -31 167 -29 169 2 2 43 -60 91 -138 122 -196 106 -180 167
-172 46 6 51 9 47 29 -3 11 -27 144 -53 294 l-48 272 -26 -1 c-14 -1 -37 -4
-52 -6z"/>
<path d="M6237 9383 c-9 -21 -42 -99 -73 -173 -31 -74 -76 -182 -101 -239 -25
-57 -41 -107 -36 -111 4 -5 29 -11 55 -15 l46 -7 23 61 c14 39 27 60 34 57 7
-2 33 -8 59 -11 41 -7 46 -10 47 -34 3 -112 -1 -103 54 -118 28 -7 53 -13 57
-13 5 0 6 60 3 133 -3 72 -8 212 -11 309 -4 127 -10 178 -18 181 -7 3 -37 8
-68 12 l-54 7 -17 -39z m62 -195 c1 -40 -2 -93 -5 -116 l-7 -44 -36 7 c-20 4
-38 8 -40 11 -6 6 74 214 83 214 2 0 5 -33 5 -72z"/>
<path d="M3633 9349 c-18 -5 -33 -14 -33 -19 0 -8 98 -409 131 -532 11 -41 15
-43 72 -27 26 7 37 16 37 29 0 15 -82 366 -122 518 -12 46 -22 49 -85 31z"/>
<path d="M6594 9323 c-9 -38 -48 -187 -100 -383 -32 -119 -40 -166 -32 -171
20 -13 80 -21 88 -12 4 4 26 82 49 173 23 90 43 166 44 167 2 1 11 -71 20
-160 28 -254 22 -233 74 -247 25 -6 47 -9 50 -7 2 2 21 66 43 141 22 75 58
198 80 273 22 76 40 143 40 149 0 18 -91 38 -101 23 -4 -7 -22 -65 -39 -128
-63 -233 -54 -229 -74 -31 -10 96 -20 184 -22 196 -4 14 -19 24 -50 32 -60 16
-63 16 -70 -15z"/>
<path d="M3380 9279 c-69 -21 -137 -42 -152 -45 -31 -7 -33 -16 -17 -63 12
-35 20 -37 77 -17 23 8 43 12 46 8 5 -10 112 -367 126 -424 9 -33 18 -48 29
-48 34 0 91 21 91 34 0 7 -14 60 -31 117 -45 150 -99 328 -105 344 -4 9 11 18
50 29 32 9 56 22 56 30 0 26 -22 76 -33 75 -7 0 -68 -18 -137 -40z"/>
<path d="M7011 9199 c-17 -50 -14 -56 39 -74 28 -9 50 -20 50 -24 0 -4 -21
-66 -46 -137 -89 -249 -114 -328 -107 -334 5 -4 27 -14 51 -24 33 -12 44 -13
47 -4 41 113 104 293 127 363 17 50 34 94 38 98 4 5 24 1 45 -7 21 -9 43 -16
51 -16 12 0 42 76 33 84 -6 5 -299 106 -309 106 -4 0 -13 -14 -19 -31z"/>
<path d="M3073 9182 c-24 -9 -43 -22 -43 -29 0 -8 25 -81 55 -162 30 -82 55
-152 55 -155 0 -4 -32 30 -71 76 -109 126 -177 198 -188 198 -5 0 -30 -9 -55
-20 l-46 -19 18 -48 c11 -26 58 -151 107 -278 48 -126 89 -232 90 -233 4 -5
95 35 95 42 0 5 -76 205 -108 284 -12 28 -20 52 -18 52 3 0 109 -116 248 -273
17 -19 19 -19 63 -3 25 10 45 23 45 29 0 7 -22 73 -48 147 -27 74 -71 197 -98
273 -27 75 -51 137 -54 136 -3 0 -24 -8 -47 -17z"/>
<path d="M7413 9051 c-34 -21 -45 -43 -125 -241 -74 -184 -77 -192 -78 -224 0
-41 52 -85 141 -119 41 -15 82 -27 92 -27 44 0 73 29 109 107 94 205 141 322
146 360 4 36 1 46 -24 71 -28 28 -175 92 -211 92 -10 0 -32 -9 -50 -19z m133
-108 c32 -16 35 -21 31 -48 -3 -17 -24 -73 -47 -125 -109 -246 -99 -233 -165
-206 -25 11 -35 21 -35 37 0 18 116 316 137 352 7 12 40 8 79 -10z"/>
<path d="M2680 9033 c-8 -4 -70 -32 -137 -64 l-123 -58 34 -78 c50 -117 206
-447 215 -456 7 -7 246 94 263 111 10 10 -18 82 -31 82 -5 0 -43 -16 -86 -35
-43 -20 -80 -34 -82 -32 -2 3 -19 36 -38 75 -38 79 -39 75 45 112 30 13 56 25
58 26 2 1 -27 76 -32 82 -2 1 -33 -11 -69 -28 -37 -16 -69 -30 -72 -30 -7 0
-66 132 -61 137 2 2 39 19 82 38 43 19 80 38 82 43 2 8 -26 83 -31 81 -1 0 -9
-3 -17 -6z"/>
<path d="M7698 8673 c-69 -137 -129 -258 -133 -270 -5 -18 1 -25 34 -43 22
-11 43 -20 46 -20 2 0 41 71 84 158 44 86 80 152 80 145 1 -7 -3 -34 -8 -60
-6 -26 -12 -72 -14 -101 -4 -50 -2 -54 24 -67 15 -8 32 -15 36 -15 4 0 44 34
88 75 44 41 81 75 83 75 2 0 -14 -33 -36 -72 -22 -40 -60 -112 -86 -159 l-47
-87 46 -25 45 -26 14 22 c31 50 266 496 266 504 0 6 -22 22 -48 36 l-49 27
-117 -111 c-64 -62 -118 -110 -120 -108 -2 3 16 138 38 281 6 37 5 38 -44 63
-27 14 -51 25 -52 25 -2 0 -60 -111 -130 -247z"/>
<path d="M8550 8869 c0 -21 -154 -332 -230 -464 -113 -195 -252 -404 -385
-575 l-50 -64 -5 59 -5 60 -38 -49 c-122 -160 -285 -293 -477 -392 -41 -21
-316 -119 -610 -219 l-535 -180 -42 -225 c-23 -124 -53 -290 -67 -370 -14 -80
-32 -181 -40 -225 -31 -169 -88 -473 -101 -540 -7 -38 -26 -136 -41 -218 l-28
-147 -367 -360 c-202 -198 -370 -360 -373 -360 -3 0 -6 20 -6 45 0 43 3 47
152 207 248 265 472 503 482 510 6 4 15 42 22 85 20 135 148 961 164 1058 16
98 59 372 76 485 8 58 17 114 19 125 3 15 27 28 97 52 203 71 1288 453 1369
483 l86 32 88 146 c49 81 95 157 103 169 13 21 11 24 -35 53 -76 48 -387 203
-518 258 -615 258 -1261 402 -1922 429 l-163 6 0 -231 0 -232 126 -72 c165
-96 304 -194 304 -216 0 -9 -12 -80 -26 -157 -14 -77 -36 -201 -49 -275 -13
-74 -42 -236 -65 -360 -50 -279 -66 -363 -84 -465 -100 -563 -158 -877 -168
-910 -7 -27 -13 -192 -15 -495 l-4 -455 78 80 c99 101 358 377 405 430 38 44
31 14 93 420 14 94 62 400 106 680 45 281 87 555 96 610 8 55 18 103 21 107 4
4 72 29 152 56 197 68 1025 359 1238 436 l172 62 70 113 c39 62 70 116 70 121
0 4 -66 42 -147 83 -542 277 -1177 466 -1813 541 -172 21 -437 39 -455 32 -12
-4 -15 -31 -15 -153 0 -81 4 -153 8 -159 4 -6 41 -30 82 -54 158 -91 300 -198
274 -207 -6 -2 -54 26 -107 62 -53 36 -138 89 -189 118 l-93 53 -3 187 -2 187
82 0 c321 -1 895 -91 1298 -205 338 -95 738 -254 990 -393 47 -26 97 -53 113
-61 15 -7 27 -17 27 -20 0 -8 -140 -234 -162 -263 -12 -15 -132 -60 -728 -268
-107 -38 -312 -110 -455 -160 -143 -51 -279 -98 -302 -105 -72 -23 -80 -31
-87 -82 -4 -26 -18 -119 -31 -205 -63 -399 -77 -491 -95 -603 -11 -66 -31
-199 -45 -295 -15 -96 -33 -218 -41 -270 -8 -52 -22 -150 -32 -218 -21 -139
-2 -108 -187 -302 -163 -170 -381 -403 -404 -430 l-20 -25 -1 572 0 572 51
278 c29 153 55 298 59 323 15 90 90 518 114 645 13 72 22 133 19 138 -2 4
-125 7 -273 7 l-269 0 -10 38 c-6 20 -11 42 -11 48 0 6 -19 18 -42 27 -53 20
-475 172 -658 237 -74 27 -241 87 -370 135 -129 48 -263 96 -297 108 -35 11
-63 24 -63 28 0 8 109 48 293 108 183 59 497 137 672 166 83 14 164 27 182 30
l31 6 8 -102 7 -102 81 7 c44 4 151 11 236 16 85 5 156 9 158 10 1 0 2 151 2
335 l0 335 -67 0 c-38 0 -131 -5 -208 -10 -655 -47 -1268 -193 -1845 -440
-138 -58 -412 -196 -492 -246 l-37 -24 101 -167 c56 -93 103 -170 105 -172 1
-2 148 -55 325 -118 308 -109 410 -145 908 -320 118 -41 237 -83 265 -92 l50
-18 22 -144 c12 -79 34 -220 48 -314 15 -93 37 -237 50 -320 49 -306 90 -568
125 -800 12 -77 23 -149 25 -160 3 -11 50 -69 106 -130 56 -60 154 -166 218
-235 64 -69 152 -163 197 -210 129 -136 124 -128 124 -184 0 -40 -2 -47 -12
-37 -7 7 -175 172 -374 367 l-360 354 -63 342 c-34 189 -65 349 -69 356 -9 17
-14 19 -1407 490 -61 21 -83 33 -95 54 -8 15 -12 30 -8 33 3 4 339 -105 747
-241 407 -136 742 -246 745 -243 4 4 -159 901 -168 925 -2 7 -361 131 -796
275 l-791 264 -68 110 c-65 104 -158 254 -331 535 -42 69 -141 230 -219 358
-79 127 -146 232 -150 232 -4 0 3 -82 16 -182 25 -199 48 -396 148 -1228 69
-581 77 -649 155 -1285 48 -390 81 -663 95 -785 l7 -56 -80 -111 c-43 -62
-100 -143 -126 -181 l-48 -70 11 -123 c55 -594 107 -1122 116 -1165 3 -12 88
-95 190 -185 172 -152 185 -166 190 -204 3 -22 30 -240 60 -485 30 -245 64
-528 77 -629 25 -208 15 -187 134 -270 38 -26 125 -87 194 -136 69 -48 161
-113 205 -143 44 -31 159 -111 257 -179 97 -68 182 -123 190 -123 7 1 38 11
68 24 l55 24 5 118 5 118 240 -255 c132 -140 278 -301 325 -356 l85 -102 875
0 875 0 65 76 c142 165 179 206 523 568 l66 70 1 -117 0 -118 33 -13 c17 -8
48 -20 68 -27 l36 -13 157 109 c655 457 786 551 791 562 2 6 36 274 75 595
167 1374 200 1654 225 1867 14 124 29 253 33 286 6 43 5 61 -2 58 -6 -3 -49
-54 -96 -115 -82 -108 -85 -110 -88 -80 -2 18 1 76 7 131 l9 98 115 171 c95
141 116 178 121 218 3 26 29 230 56 453 59 483 56 462 78 486 50 54 125 164
165 242 41 79 92 220 84 229 -2 2 -37 -19 -78 -46 -67 -44 -295 -171 -307
-171 -3 0 38 41 92 92 190 178 320 374 394 594 23 68 64 256 57 262 -3 3 -48
-35 -101 -84 -100 -92 -187 -164 -200 -164 -4 0 4 12 17 28 74 80 190 282 238
414 56 152 91 332 91 463 0 127 -2 128 -93 7 -103 -138 -333 -402 -350 -402
-3 0 7 19 22 43 33 48 117 213 154 302 43 103 94 287 118 421 27 156 32 399
10 479 -14 52 -31 81 -31 54z m-3540 -459 c0 -148 0 -273 0 -277 0 -5 -46 -11
-102 -14 -57 -3 -140 -10 -186 -14 -71 -6 -81 -5 -76 8 6 17 63 26 229 36
l100 6 3 248 2 247 -27 0 c-49 0 -354 -29 -470 -44 -623 -83 -1227 -262 -1743
-517 -102 -50 -187 -92 -188 -94 -2 -2 27 -56 65 -119 l68 -116 65 -25 c36
-13 137 -49 225 -80 88 -31 248 -87 355 -125 107 -37 281 -98 385 -135 105
-36 219 -77 255 -90 36 -13 112 -40 170 -60 58 -21 108 -40 112 -44 4 -3 16
-67 28 -141 12 -74 30 -189 40 -255 11 -66 33 -210 50 -320 17 -110 38 -240
46 -290 47 -299 54 -363 48 -408 -3 -27 -8 -47 -10 -45 -4 5 -23 119 -109 678
-117 754 -115 744 -133 758 -9 7 -44 21 -77 32 -33 10 -136 45 -230 78 -93 33
-291 103 -440 155 -148 52 -388 137 -533 188 l-263 94 -47 78 c-26 43 -64 105
-84 137 l-37 60 72 42 c184 107 555 267 828 358 156 52 367 109 540 148 310
70 726 125 987 130 l82 2 0 -270z m3521 77 c-32 -342 -153 -664 -364 -965 -53
-76 -310 -352 -327 -352 -24 0 12 55 84 130 82 86 72 77 -101 -85 -67 -62
-154 -130 -187 -146 -24 -12 -11 0 109 101 81 68 252 243 288 295 12 16 -33
-24 -99 -90 -147 -147 -264 -251 -264 -236 0 6 62 73 138 149 135 135 201 208
257 287 21 29 15 25 -20 -15 -70 -79 -278 -290 -282 -286 -2 1 7 26 19 53 15
32 59 89 121 153 113 120 221 258 305 391 57 91 126 219 118 219 -2 0 -23 -33
-47 -72 -99 -163 -265 -373 -394 -498 -55 -53 -57 -54 -51 -25 3 17 10 58 15
92 9 57 16 69 83 150 108 128 184 232 275 373 120 187 202 329 279 480 l49 95
3 -39 c2 -22 -1 -93 -7 -159z m-6643 -132 c41 -66 90 -147 111 -180 20 -33
116 -189 213 -346 l176 -286 40 -154 c23 -85 68 -262 102 -394 34 -132 63
-247 66 -256 3 -11 -7 -24 -31 -39 l-36 -22 -76 69 c-181 161 -164 139 -178
228 -7 44 -23 165 -35 268 l-23 189 -98 74 c-97 75 -98 76 -109 132 -30 150
-63 302 -67 299 -1 -2 9 -74 24 -160 15 -86 24 -159 21 -163 -3 -3 -33 15 -66
40 -51 39 -61 52 -66 84 -7 48 -20 158 -51 417 -14 116 -27 216 -30 223 -2 6
-1 12 3 12 4 0 34 -48 65 -107 95 -180 146 -273 201 -373 29 -52 88 -159 131
-237 43 -79 80 -141 82 -139 3 2 -19 48 -48 103 -150 283 -280 524 -356 661
-71 127 -85 161 -90 210 l-5 57 29 -45 c16 -25 61 -99 101 -165z m4465 -225
c176 -41 355 -94 432 -129 73 -34 101 -66 86 -102 -21 -50 -44 -67 -134 -99
-416 -147 -617 -214 -623 -207 -5 4 99 567 104 567 2 0 63 -14 135 -30z m2292
-347 c-81 -438 -333 -787 -791 -1094 -92 -61 -105 -68 -102 -48 2 16 31 42 92
83 49 34 110 80 135 104 37 35 28 30 -49 -25 -122 -89 -170 -117 -170 -103 0
15 29 41 148 134 56 43 102 82 102 87 0 5 -28 -14 -62 -42 -69 -55 -179 -130
-313 -212 -48 -29 -85 -56 -83 -60 8 -22 -266 -157 -410 -202 -198 -62 -351
-113 -387 -128 -35 -15 -37 -16 -20 -1 49 39 194 101 389 165 238 79 297 106
411 189 44 32 128 89 185 127 165 110 260 184 355 278 28 28 37 38 20 24 -140
-121 -440 -337 -452 -325 -3 3 16 20 43 38 248 172 423 316 534 439 57 64 160
188 160 193 0 1 -75 -72 -167 -164 -97 -95 -219 -203 -287 -255 -145 -108
-187 -137 -192 -132 -13 12 18 45 100 107 51 38 99 77 107 87 8 11 0 8 -21 -8
-140 -104 -172 -120 -130 -67 10 14 17 28 14 31 -3 3 0 23 6 45 9 35 25 52
113 120 125 97 354 308 463 428 117 128 264 303 265 317 1 7 4 0 6 -15 2 -15
-3 -67 -12 -115z m-861 -143 c-36 -67 -132 -162 -229 -229 -43 -30 -194 -113
-334 -184 -141 -71 -283 -145 -316 -165 -162 -97 -276 -207 -397 -388 -105
-156 -138 -227 -184 -392 -33 -121 -100 -470 -91 -478 2 -3 14 46 26 108 40
204 92 401 132 503 60 152 77 172 33 39 -41 -126 -82 -323 -129 -629 -83 -530
-136 -655 -338 -794 -42 -28 -153 -84 -297 -148 -57 -26 -156 -100 -190 -143
-63 -80 -93 -184 -70 -244 14 -37 -6 -33 -29 5 -12 19 -20 26 -23 18 -7 -21
-40 35 -49 84 l-9 42 127 122 c112 109 135 126 202 154 145 59 290 141 353
198 57 52 138 160 138 185 0 6 -16 -14 -36 -44 -52 -81 -129 -149 -228 -203
-49 -26 -90 -46 -93 -44 -2 3 25 25 59 50 69 49 128 105 128 121 0 6 -19 -8
-42 -31 -44 -42 -246 -179 -253 -171 -3 2 65 74 151 159 l155 154 14 65 c8 36
29 99 49 140 39 86 82 243 92 343 4 37 10 69 13 72 10 6 46 -269 46 -350 0
-38 -3 -88 -7 -110 -6 -33 -6 -36 3 -15 20 47 22 156 6 355 -27 339 -28 376
-17 515 24 292 87 470 217 611 125 134 228 188 593 308 401 133 603 240 780
413 36 35 66 60 68 56 2 -4 -9 -30 -24 -58z m-5752 -106 l153 -116 12 -66 c20
-110 22 -109 -79 -34 -51 38 -126 92 -165 121 -43 31 -73 60 -73 70 0 10 -3
46 -6 80 -4 33 -4 61 -1 61 3 0 74 -52 159 -116z m5729 -89 c-56 -202 -204
-376 -436 -512 -38 -22 -167 -88 -285 -146 -236 -116 -307 -162 -422 -278 -79
-79 -89 -78 -22 2 58 70 182 177 279 241 106 71 115 78 55 48 -83 -42 -205
-134 -289 -219 -88 -88 -95 -90 -27 -6 58 73 182 180 283 248 48 32 90 61 93
65 7 8 -86 -45 -155 -90 l-60 -38 39 34 c51 47 135 96 352 204 189 96 302 165
369 226 31 29 18 22 -63 -30 -56 -36 -194 -110 -307 -165 -239 -116 -339 -180
-454 -292 -46 -45 -78 -72 -72 -60 20 40 168 180 250 238 83 58 102 76 53 51
-115 -60 -278 -214 -376 -358 -59 -87 -70 -94 -35 -25 84 164 211 304 372 408
51 33 196 112 322 175 306 155 372 195 469 285 44 42 83 75 84 74 2 -2 -6 -38
-17 -80z m-4565 -189 c6 -6 28 -96 48 -201 21 -104 38 -191 39 -192 3 -2 231
-94 273 -109 l41 -15 37 -188 c20 -104 36 -194 36 -199 0 -14 -901 287 -905
302 -1 6 -24 99 -49 206 -45 192 -73 295 -75 275 -1 -5 24 -113 54 -239 30
-126 55 -233 55 -237 0 -5 -6 -9 -14 -9 -10 0 -38 99 -103 360 -48 198 -89
356 -91 351 -3 -10 60 -287 119 -523 21 -86 39 -160 39 -163 0 -4 -7 -5 -16
-3 -13 2 -40 93 -120 408 -57 223 -104 410 -104 417 0 13 717 -222 736 -241z
m-1271 178 c17 -11 25 -26 26 -48 2 -30 2 -30 6 -3 l4 27 99 -76 c54 -42 105
-83 114 -93 9 -10 26 -89 45 -209 17 -106 35 -201 41 -212 5 -10 52 -56 103
-101 50 -45 115 -103 143 -130 l50 -47 49 -349 c27 -191 51 -341 53 -332 2 14
-69 619 -83 692 -6 34 1 34 43 -2 30 -26 34 -38 62 -172 45 -215 81 -372 91
-389 10 -19 5 17 -33 240 -36 211 -43 265 -29 233 10 -23 101 -469 101 -496 0
-13 -8 -13 -52 4 -29 10 -57 19 -62 19 -5 0 -6 -33 -2 -77 12 -133 10 -130 80
-150 l61 -19 47 -279 c26 -154 47 -287 48 -295 0 -11 -33 -22 -127 -43 -71
-16 -137 -32 -148 -37 -38 -16 39 -11 147 10 57 11 116 20 132 20 16 0 187
-52 379 -115 192 -63 353 -115 359 -115 7 0 8 18 4 51 -6 40 -4 50 6 46 7 -2
61 -24 120 -48 l106 -43 27 -56 27 -56 386 -130 c381 -128 387 -131 390 -158
3 -21 0 -27 -10 -24 -7 3 -182 60 -388 128 -206 67 -603 198 -882 291 l-508
169 -122 0 c-68 0 -129 -4 -136 -9 -9 -5 -18 -67 -29 -202 -15 -185 -20 -219
-30 -192 -4 11 -67 104 -195 286 -77 110 -131 181 -125 165 7 -20 282 -424
309 -454 15 -17 18 -34 16 -102 -2 -45 -6 -81 -10 -80 -7 3 -131 181 -370 534
l-88 130 -20 165 c-11 90 -29 236 -40 324 -11 88 -31 253 -44 366 -14 113 -43
351 -65 530 -46 372 -111 912 -111 922 0 11 9 8 35 -9z m1678 -308 c202 -68
369 -125 372 -127 2 -3 15 -70 29 -149 14 -80 43 -246 66 -370 23 -124 44
-240 47 -257 6 -33 -1 -40 -23 -25 -7 4 -37 142 -68 307 -32 165 -60 302 -63
305 -7 6 -1 -29 53 -330 49 -275 49 -271 31 -264 -7 2 -20 46 -30 102 -30 164
-71 356 -74 346 -2 -6 15 -104 37 -219 22 -115 38 -211 35 -213 -2 -2 -75 20
-161 49 l-158 54 -27 146 c-15 80 -30 169 -34 197 -4 29 -14 61 -23 72 -10 11
-82 47 -162 79 -80 33 -148 65 -152 73 -4 7 -19 78 -33 158 -15 80 -29 155
-32 168 -3 12 -3 22 -1 22 2 0 169 -56 371 -124z m1497 104 c0 -19 -7 -20
-110 -20 -99 0 -111 -2 -129 -22 -19 -19 -21 -20 -27 -4 -4 10 -2 28 4 42 11
24 14 24 137 24 118 0 125 -1 125 -20z m230 13 c0 -8 -19 -111 -65 -357 -14
-77 -28 -142 -32 -145 -3 -3 -3 8 0 25 9 47 21 234 15 234 -3 0 -11 -53 -18
-117 -16 -155 -30 -177 -28 -45 0 56 -2 105 -6 109 -3 3 -6 -41 -6 -100 0 -60
-4 -109 -10 -112 -6 -4 -10 43 -11 132 -2 161 -6 157 -17 -17 l-8 -125 -8 247
c-5 136 -6 254 -3 263 5 12 25 15 102 15 52 0 95 -3 95 -7z m-232 -280 l-3
-238 -150 0 c-144 0 -150 1 -148 20 3 30 53 333 64 392 7 34 16 53 27 56 9 3
61 5 115 6 l97 1 -2 -237z m-278 91 c-15 -162 -39 -318 -54 -356 -16 -37 -75
-293 -191 -818 -78 -358 -93 -413 -94 -350 -1 36 26 183 79 430 17 80 53 251
80 380 89 428 180 833 187 827 1 -2 -2 -53 -7 -113z m3749 35 c-41 -133 -135
-308 -224 -419 -150 -187 -310 -317 -510 -417 -82 -41 -234 -98 -241 -90 -10
9 9 37 29 43 32 9 198 87 194 90 -1 2 -47 -15 -101 -37 -54 -21 -102 -36 -108
-33 -5 3 42 30 104 58 113 52 248 124 248 132 0 2 -44 -18 -97 -45 -104 -52
-308 -135 -358 -146 -28 -7 -29 -6 -10 7 11 9 46 25 79 37 78 29 374 176 406
202 14 11 -39 -11 -116 -50 -171 -85 -317 -144 -312 -128 2 7 81 50 174 97
195 97 238 122 349 201 95 68 241 193 249 214 3 9 -27 -12 -67 -45 -110 -94
-286 -207 -453 -293 -84 -42 -155 -77 -158 -77 -3 0 -3 7 1 16 3 8 40 32 82
53 42 21 87 48 101 59 14 12 -13 1 -60 -23 -47 -24 -88 -45 -92 -45 -4 0 4 24
18 53 25 50 32 55 167 132 244 138 452 284 632 443 44 39 83 71 86 71 4 1 -2
-27 -12 -60z m-849 -112 c-103 -247 -264 -374 -610 -480 -280 -85 -421 -162
-584 -319 -47 -46 -86 -82 -86 -80 0 14 98 126 141 164 60 50 191 137 286 189
34 18 60 35 58 37 -6 6 -193 -95 -245 -133 -71 -50 -79 -50 -25 0 112 102 254
184 491 280 147 60 272 122 314 155 14 12 -15 0 -65 -24 -49 -25 -157 -70
-240 -102 -238 -90 -370 -160 -481 -257 -27 -23 -42 -33 -34 -23 22 29 94 94
158 144 69 53 78 62 35 36 -64 -39 -196 -149 -250 -208 -30 -34 -75 -92 -100
-131 -64 -97 -73 -103 -27 -17 21 41 67 109 101 152 157 196 340 318 648 433
244 91 372 156 492 247 30 23 49 32 51 24 2 -7 -11 -46 -28 -87z m-1362 21
c-31 -29 -68 -72 -83 -96 -15 -23 -29 -41 -31 -39 -2 2 2 33 8 70 l11 66 71
25 c39 13 73 25 75 25 3 1 -20 -23 -51 -51z m-3929 -281 c77 -69 121 -115 121
-127 0 -11 -1 -20 -3 -20 -2 0 -33 28 -68 63 -35 34 -97 92 -137 129 -39 37
-72 73 -72 78 0 16 20 0 159 -123z m2669 -34 l-3 -28 -136 -3 -135 -3 -57
-257 c-31 -141 -82 -372 -112 -512 -30 -140 -64 -295 -76 -344 -23 -100 -30
-81 66 -186 27 -30 91 -100 140 -155 110 -122 241 -260 278 -293 22 -21 27
-34 27 -74 0 -26 -2 -48 -4 -48 -5 0 -15 10 -392 415 -184 199 -194 210 -194
237 0 13 18 107 40 209 22 101 49 225 60 274 39 185 161 721 171 752 6 17 15
34 22 37 7 2 79 5 160 5 l148 1 -3 -27z m-2480 -34 c7 -29 11 -53 9 -55 -1 -2
-20 13 -40 33 -36 34 -37 36 -21 54 27 30 40 23 52 -32z m5022 -133 c-109
-221 -283 -336 -683 -450 -245 -70 -396 -134 -476 -202 -16 -13 -32 -24 -36
-24 -7 0 55 53 91 78 19 13 19 13 0 7 -60 -18 93 90 209 147 70 35 108 50 330
128 112 40 301 128 292 136 -2 2 -44 -14 -94 -35 -49 -22 -159 -62 -244 -91
-315 -106 -420 -162 -561 -299 -33 -32 -58 -49 -58 -41 -1 10 -10 4 -27 -15
l-26 -30 18 30 c102 172 232 289 409 370 71 33 108 45 378 129 165 52 303 117
428 203 47 32 86 55 88 51 2 -4 -15 -45 -38 -92z m-2430 62 c0 -38 -85 -476
-91 -465 -8 13 -80 380 -87 440 l-4 37 91 0 c66 0 91 -3 91 -12z m-242 -15 c2
-9 -9 -13 -35 -14 l-38 -2 40 -6 c34 -5 40 -10 43 -33 3 -28 2 -28 -52 -28
-61 0 -63 2 -50 69 6 30 9 32 47 29 22 -2 42 -9 45 -15z m-1891 -207 l308
-104 6 -33 c60 -341 81 -471 76 -475 -2 -3 -130 37 -284 87 l-280 92 -12 66
c-37 209 -75 394 -78 380 -3 -14 57 -358 73 -416 7 -24 -2 -29 -24 -14 -8 4
-32 100 -57 227 -24 120 -49 234 -54 253 -11 35 -6 55 10 46 5 -4 147 -53 316
-109z m5305 18 c-79 -157 -238 -323 -405 -423 -124 -74 -257 -127 -417 -165
-172 -41 -171 -41 -132 -16 18 11 42 20 55 20 16 0 18 3 8 9 -19 12 -9 16 107
45 56 15 123 35 150 47 51 22 48 21 -110 -21 -60 -15 -108 -25 -108 -21 1 21
27 34 111 57 52 14 105 32 119 40 21 13 22 14 3 9 -50 -13 -169 -46 -186 -51
-15 -5 -18 -1 -15 21 3 25 10 29 96 51 166 43 384 138 457 199 24 20 15 17
-50 -15 -158 -77 -466 -179 -502 -166 -31 12 -11 35 42 47 30 7 53 14 51 16
-2 3 -30 -1 -61 -7 -31 -6 -59 -10 -61 -7 -3 2 1 16 7 31 11 22 28 31 113 56
323 96 484 160 660 259 50 28 92 49 94 47 2 -2 -10 -30 -26 -62z m-3382 6 c0
-6 -29 -10 -67 -10 -83 0 -79 -8 6 -11 56 -2 64 -5 72 -26 5 -14 9 -29 9 -34
0 -5 -45 -9 -100 -9 -55 0 -100 3 -100 6 0 3 5 25 11 50 l11 44 79 0 c46 0 79
-4 79 -10z m-1215 -264 c203 -69 371 -130 375 -136 9 -15 94 -490 88 -496 -3
-2 -12 -2 -21 1 -10 4 -20 37 -32 103 -9 53 -29 158 -44 232 l-26 134 -188 64
c-104 35 -191 62 -193 59 -5 -5 255 -101 322 -119 50 -14 41 12 94 -276 29
-157 32 -197 14 -179 -3 3 -17 63 -30 132 -28 150 -46 218 -37 140 3 -27 14
-92 24 -144 23 -114 24 -127 5 -112 -7 6 -19 45 -26 86 -7 42 -16 78 -20 80
-4 3 -1 -28 6 -68 8 -39 14 -77 14 -83 0 -6 -138 35 -307 92 l-307 102 -23
133 c-12 74 -33 189 -46 257 -13 67 -21 122 -17 122 4 0 173 -56 375 -124z
m3744 89 c-73 -25 -137 -41 -128 -31 8 8 160 55 179 55 8 0 -15 -11 -51 -24z
m-2489 -20 c0 -11 -21 -15 -107 -18 l-108 -3 113 -2 c103 -2 112 -4 112 -21 0
-11 3 -26 6 -35 5 -14 -11 -16 -140 -16 -112 0 -144 3 -141 13 2 6 9 31 15 55
l11 42 119 0 c99 0 120 -3 120 -15z m2434 -102 c-89 -153 -231 -240 -513 -314
-191 -50 -313 -90 -376 -121 -94 -48 -189 -114 -249 -175 -62 -62 -72 -60 -23
4 67 87 224 196 376 259 31 13 50 23 43 24 -23 0 -144 -51 -212 -90 -36 -21
-98 -66 -138 -100 -40 -33 -66 -50 -57 -37 19 29 154 144 208 176 101 62 196
98 405 157 130 37 287 93 279 100 -2 2 -32 -5 -68 -16 -35 -11 -133 -39 -219
-61 -260 -68 -490 -173 -573 -263 l-39 -41 33 48 c18 26 36 47 41 47 4 0 25
15 45 33 48 41 106 79 208 134 44 23 76 43 71 43 -20 0 -195 -90 -238 -123
-71 -54 -58 -28 15 32 76 63 232 141 350 175 49 14 155 40 235 56 166 35 318
72 377 93 22 8 42 13 44 11 2 -2 -9 -25 -25 -51z m-1374 -158 c-6 -60 -18
-144 -26 -185 -18 -84 -73 -264 -80 -258 -2 3 17 117 42 254 25 137 51 278 57
314 11 61 12 63 15 25 2 -22 -1 -89 -8 -150z m2073 48 c-2 -21 -10 -85 -18
-143 -8 -58 -26 -199 -40 -315 -50 -410 -38 -362 -119 -483 -274 -408 -377
-555 -382 -549 -8 8 39 155 72 220 36 72 64 114 126 186 49 56 138 191 170
256 14 28 32 77 41 110 18 69 41 225 33 232 -3 3 -7 -5 -9 -18 -42 -230 -65
-295 -149 -418 -29 -42 -86 -115 -128 -162 -113 -129 -169 -247 -189 -401 l-8
-63 -2 82 c0 45 4 106 10 135 15 75 70 185 120 241 23 26 40 50 37 52 -2 2
-27 -19 -56 -47 -56 -54 -60 -51 -37 26 8 27 14 79 14 115 l-2 66 -12 -80 c-7
-44 -13 -69 -14 -55 -2 22 -3 23 -10 5 -5 -11 -10 26 -14 96 -10 182 -23 181
-22 -3 0 -160 -1 -165 -35 -267 -24 -72 -36 -97 -38 -79 -2 14 11 60 28 102
41 105 48 192 25 343 -21 138 -38 191 -29 89 3 -38 8 -77 11 -85 4 -12 3 -13
-6 -5 -11 10 -61 211 -61 247 0 10 7 26 16 34 11 12 14 25 9 47 -14 63 -8 114
23 180 23 50 36 66 51 66 l21 0 -20 -50 c-11 -28 -20 -58 -20 -68 1 -9 13 14
28 52 19 48 34 71 50 77 26 10 27 8 7 -34 -8 -18 -10 -23 -3 -12 26 39 67 75
87 75 12 0 29 4 39 10 29 16 194 90 201 90 3 0 4 -32 3 -71 -4 -75 17 -155 59
-223 26 -43 24 -28 -12 83 -26 80 -30 107 -26 161 4 55 9 67 33 87 16 12 29
21 31 19 1 -1 -4 -34 -12 -72 -8 -38 -14 -80 -14 -94 0 -14 11 22 23 78 19 87
39 132 53 118 2 -2 -3 -32 -12 -67 -24 -105 -15 -112 12 -9 22 85 44 130 63
130 3 0 4 -17 3 -37z m-3093 18 c0 -5 -64 -12 -142 -17 l-143 -9 145 -5 145
-5 3 -32 3 -33 -180 0 c-100 0 -181 4 -181 9 0 4 5 23 11 42 6 19 12 40 15 47
4 14 324 18 324 3z m2433 -13 c8 -30 -2 -67 -27 -101 -42 -57 -116 -95 -304
-156 -101 -33 -203 -71 -226 -85 -142 -83 -179 -242 -71 -304 19 -11 19 -11
-4 -12 -13 0 -41 10 -62 22 -49 27 -75 87 -65 150 5 30 4 40 -3 33 -6 -6 -13
-31 -17 -55 -7 -57 26 -126 74 -153 89 -51 245 5 278 99 6 15 1 13 -22 -7 -41
-37 -67 -49 -108 -49 -100 0 -102 129 -3 204 45 34 172 81 277 100 126 24 122
26 104 -35 -9 -29 -16 -95 -17 -148 -2 -108 -8 -94 127 -315 63 -104 66 -111
66 -173 0 -80 -34 -184 -100 -311 -90 -169 -100 -250 -50 -392 35 -97 39 -155
13 -169 -16 -8 -18 -3 -18 48 0 38 -6 66 -18 85 -25 38 -31 28 -11 -20 25 -60
14 -123 -27 -154 -18 -14 -52 -44 -74 -66 -22 -23 -82 -76 -132 -119 -51 -42
-93 -79 -93 -82 0 -7 11 2 120 91 47 38 102 85 123 105 26 24 37 30 37 19 0
-9 -17 -30 -37 -48 -21 -18 -58 -51 -83 -74 -25 -23 -76 -69 -115 -101 -38
-32 -77 -65 -85 -73 -13 -13 -13 -13 5 -4 17 9 97 75 266 221 26 23 39 29 39
19 0 -9 -51 -63 -112 -120 -142 -133 -166 -152 -219 -183 -24 -14 -39 -25 -33
-25 30 0 152 93 287 220 40 38 74 63 76 57 5 -15 -196 -207 -270 -258 -74 -50
-149 -83 -149 -66 -1 7 -8 -1 -16 -16 -10 -18 -21 -27 -30 -23 -9 3 -12 1 -9
-4 8 -13 11 -14 -85 19 -47 16 -107 32 -135 35 l-50 6 53 -15 c29 -8 91 -31
139 -51 81 -33 90 -35 132 -24 103 25 222 100 335 212 44 43 81 77 82 75 8 -8
-57 -96 -107 -146 -112 -113 -237 -189 -325 -198 -47 -5 -62 -1 -137 35 -129
62 -208 84 -327 89 -94 5 -113 3 -180 -20 -41 -14 -77 -24 -78 -22 -7 7 92 52
158 73 81 26 156 41 262 52 73 8 65 8 -57 5 -222 -7 -325 -44 -440 -160 -111
-111 -166 -246 -164 -400 1 -44 4 -66 6 -50 13 114 68 262 109 296 16 13 17
12 10 -6 -59 -145 -72 -243 -60 -435 l9 -145 23 46 c19 40 22 61 22 178 0 145
13 220 60 345 33 89 52 121 81 137 24 12 25 15 -18 -67 -29 -56 -64 -163 -63
-195 1 -8 11 18 24 56 28 88 80 190 111 221 45 45 45 24 1 -40 -59 -87 -89
-178 -88 -275 0 -83 29 -220 61 -291 l20 -45 -7 45 c-4 25 -7 86 -7 135 0 85
2 95 41 175 23 47 63 109 89 138 44 49 135 112 160 111 6 0 -7 -9 -27 -19 -56
-30 -132 -113 -171 -188 -52 -99 -67 -162 -65 -266 l1 -91 7 105 c12 177 86
319 214 412 58 42 65 34 9 -11 -66 -53 -96 -86 -133 -151 -45 -77 -71 -186
-68 -287 2 -72 -1 -86 -19 -105 -11 -13 -27 -36 -35 -52 l-15 -29 -18 54 c-22
66 -51 109 -74 109 -22 0 -84 -121 -116 -225 l-12 -40 -17 60 c-22 73 -65 155
-82 155 -17 0 -42 -37 -107 -160 -44 -83 -57 -100 -63 -85 -52 149 -87 198
-128 182 -26 -10 -73 -94 -102 -180 l-27 -80 -32 84 c-75 193 -122 214 -195
86 l-30 -52 1 395 c1 397 7 536 22 475 4 -16 14 -82 23 -145 20 -150 46 -209
110 -249 55 -36 63 -33 136 40 54 54 108 157 108 205 0 17 -10 56 -22 85 -19
47 -153 324 -235 489 -32 63 -65 81 -113 63 l-30 -11 0 188 0 187 38 16 37 17
-37 -6 c-31 -4 -38 -2 -38 12 0 14 8 16 43 12 24 -3 56 -11 73 -19 29 -14 29
-15 39 -134 l10 -120 8 95 c5 52 10 97 13 100 9 9 94 -88 94 -107 -1 -17 -2
-16 -16 2 -8 11 -25 31 -36 45 l-20 25 17 -30 c10 -16 24 -39 31 -49 13 -19
13 -79 -1 -297 l-5 -76 68 -139 c38 -77 84 -172 102 -212 18 -40 35 -71 37
-69 4 5 -29 91 -111 290 -31 76 -56 146 -54 155 2 9 29 -39 61 -106 32 -67 60
-122 62 -122 3 0 -1 15 -9 33 -8 17 -37 84 -65 147 -28 63 -51 122 -51 130 0
21 15 1 33 -45 23 -60 89 -196 93 -192 2 1 -24 67 -56 146 -33 78 -60 150 -60
159 0 9 29 -43 65 -115 35 -73 67 -133 70 -133 6 0 3 6 -73 175 -27 61 -53
120 -56 133 -11 35 11 26 23 -10 14 -41 133 -249 139 -243 2 2 -14 36 -36 74
-56 97 -112 224 -112 252 1 21 2 20 15 -8 21 -48 128 -212 142 -217 7 -3 -7
25 -30 62 -55 85 -107 177 -107 187 0 5 55 -46 123 -112 139 -137 190 -172
334 -232 86 -36 105 -48 127 -82 30 -44 66 -58 102 -39 28 16 33 60 8 84 -22
22 -41 20 -21 -2 40 -44 -2 -94 -45 -55 -54 48 -38 114 34 133 52 14 129 2
287 -46 76 -23 132 -34 170 -33 l56 1 -78 14 c-117 21 -142 34 -171 93 -15 28
-26 55 -26 61 0 6 49 10 136 10 156 0 190 10 309 92 131 89 209 175 269 294
55 110 79 211 80 336 1 60 4 108 8 108 12 0 28 -73 28 -130 0 -30 -5 -84 -10
-119 -6 -35 -9 -66 -6 -68 9 -10 29 115 29 189 0 46 4 75 10 71 9 -6 4 -192
-8 -258 -3 -18 1 -12 10 14 8 25 18 81 22 125 6 71 8 77 15 46 4 -19 3 -66 -2
-105 -15 -109 -38 -179 -107 -320 l-25 -50 26 30 c43 51 123 216 139 290 25
112 27 146 13 208 -27 117 -162 267 -241 267 -53 0 -439 -146 -595 -225 -25
-12 -63 -30 -85 -39 l-40 -16 25 20 c27 21 213 114 352 175 48 22 86 40 84 42
-6 6 -151 -54 -274 -112 -62 -30 -110 -49 -106 -44 8 14 221 119 342 169 56
24 101 44 99 46 -6 6 -190 -66 -281 -111 -49 -24 -92 -42 -94 -40 -14 13 231
134 370 183 247 87 351 63 432 -100 42 -82 49 -74 9 9 -35 75 -100 140 -149
149 -20 4 -76 4 -123 1 l-86 -6 73 36 c89 44 154 100 181 156 13 27 26 88 36
167 8 69 17 136 20 150 6 25 6 25 -10 -2 -8 -15 -24 -84 -34 -153 -21 -138
-45 -193 -103 -237 -44 -33 -173 -99 -273 -138 -44 -17 -128 -56 -187 -85 -60
-30 -108 -52 -108 -51 0 2 7 23 15 47 17 46 12 94 -9 102 -11 4 -12 0 -3 -22
23 -62 -53 -154 -274 -331 -189 -151 -430 -293 -569 -334 -129 -38 -235 -4
-270 88 -15 40 9 118 57 180 70 92 172 146 546 291 245 95 336 172 541 457
121 169 180 211 362 257 252 64 353 112 468 222 39 38 74 69 77 69 4 0 9 -10
12 -22z m-4074 -292 c707 -235 699 -232 701 -288 0 -15 -4 -15 -53 2 -46 16
-335 110 -822 267 -77 24 -219 70 -315 100 -96 30 -178 58 -182 62 -11 10 -21
81 -12 81 5 0 312 -101 683 -224z m1651 104 c0 -6 -69 -10 -187 -10 -125 0
-183 -4 -173 -10 8 -5 93 -10 188 -10 l172 0 0 -35 0 -34 -200 -3 c-225 -3
-213 -8 -188 73 l11 39 189 0 c119 0 188 -4 188 -10z m-1839 -181 l326 -103
41 -290 c23 -159 41 -291 39 -292 -2 -2 -122 36 -268 84 -243 82 -264 90 -267
113 -10 91 -46 302 -49 292 -3 -7 5 -76 17 -153 23 -147 23 -164 3 -152 -7 4
-23 81 -38 177 -14 94 -29 190 -35 215 -9 41 -9 40 -4 -20 5 -67 41 -311 51
-343 4 -14 0 -18 -13 -15 -14 2 -21 24 -36 118 -34 216 -72 423 -76 412 -4
-13 50 -375 74 -494 4 -22 2 -26 -14 -21 -16 4 -23 25 -41 141 -12 75 -33 197
-47 271 -29 163 -30 175 -6 169 9 -3 164 -52 343 -109z m4256 39 c-57 -145
-62 -201 -28 -348 14 -62 13 -80 -4 -49 -22 41 -38 166 -31 249 8 102 37 202
62 210 10 4 21 6 23 4 2 -2 -8 -32 -22 -66z m-41 37 c-30 -79 -40 -140 -41
-242 0 -73 -3 -109 -10 -102 -29 29 9 359 43 359 9 0 12 -6 8 -15z m-53 -42
c-8 -27 -18 -84 -22 -128 l-8 -80 -2 61 c-1 55 14 168 26 187 2 4 8 7 13 7 4
0 1 -21 -7 -47z m-743 -52 c-26 -27 -88 -108 -140 -181 -127 -179 -229 -274
-363 -340 -115 -57 -148 -64 -97 -21 36 29 92 99 223 276 82 112 147 172 254
234 65 37 148 78 164 80 3 1 -16 -21 -41 -48z m-1580 -1 c0 -6 -70 -10 -191
-10 -124 0 -188 -3 -184 -10 4 -6 78 -10 191 -10 l184 0 0 -35 0 -35 -226 0
c-193 0 -225 2 -221 14 3 8 11 33 17 55 l11 41 209 0 c133 0 210 -4 210 -10z
m-1230 -175 c96 -31 226 -73 289 -92 62 -19 126 -40 142 -47 15 -6 120 -102
232 -212 l204 -201 7 -153 c4 -84 5 -154 2 -157 -2 -2 -175 53 -384 124 l-379
128 -29 55 c-29 55 -29 55 -144 103 -63 27 -120 54 -126 60 -9 9 -74 425 -74
470 0 3 19 -1 43 -8 23 -8 121 -39 217 -70z m348 18 c53 -17 72 -38 72 -79 0
-17 -17 -14 -80 14 -19 8 -37 15 -40 14 -3 0 -10 15 -16 34 -13 40 -11 40 64
17z m882 -43 c0 -6 -47 -10 -117 -11 -179 -2 -204 -16 -30 -18 l147 -1 0 -35
0 -35 -142 0 c-155 1 -147 -2 -213 68 l-39 42 197 0 c125 0 197 -4 197 -10z
m-5 -190 c4 -6 -14 -10 -47 -10 -29 0 -60 -5 -68 -10 -10 -7 5 -10 53 -10 l68
0 -3 -32 c-3 -33 -3 -33 -64 -36 l-60 -3 -42 50 c-23 27 -42 52 -42 55 0 11
199 6 205 -4z m-2975 -58 c0 -15 7 -38 16 -50 8 -12 22 -66 30 -120 8 -53 17
-101 19 -107 5 -11 -2 85 -11 145 l-5 35 20 -30 c11 -16 24 -59 30 -94 13 -77
23 -94 14 -22 -3 28 -3 51 0 51 11 0 37 -58 38 -82 0 -21 1 -21 8 -4 15 39 50
-63 71 -205 10 -73 18 -134 16 -136 -1 -1 -18 19 -38 45 -20 26 -46 58 -58 72
-12 14 -36 44 -53 68 -17 23 -33 42 -37 42 -3 0 0 -46 6 -102 7 -57 27 -222
44 -366 17 -145 30 -265 28 -267 -2 -2 -11 2 -20 9 -13 10 -22 51 -39 182 -11
93 -23 171 -25 173 -7 7 -4 -27 14 -181 10 -82 15 -148 12 -148 -21 0 -41 33
-50 80 l-9 55 4 -52 c3 -45 2 -51 -13 -47 -15 5 -15 4 -1 -8 17 -14 34 -68 22
-68 -19 1 -43 29 -44 51 0 22 -1 22 -8 4 -5 -11 -7 -23 -5 -26 2 -3 6 -32 10
-64 4 -46 3 -56 -8 -49 -7 4 -5 -2 5 -13 19 -22 22 -33 7 -33 -20 0 -40 48
-45 115 -4 38 -11 92 -16 120 -24 129 -60 456 -66 600 -3 88 -10 169 -15 180
-34 77 69 -1095 108 -1237 3 -9 61 -63 129 -119 69 -57 125 -111 125 -119 0
-8 3 -26 7 -40 5 -21 -4 -16 -53 31 -32 31 -95 88 -139 126 -44 39 -87 79 -96
89 -20 23 -44 235 -119 1048 l-20 219 22 33 c13 17 56 80 96 138 41 58 78 106
83 106 5 0 9 -12 9 -28z m670 -182 c0 -13 -11 -13 -30 0 -12 8 -11 10 8 10 12
0 22 -4 22 -10z m135 -36 c100 -32 101 -32 93 -40 -9 -9 -208 56 -208 67 0 6
6 9 13 6 6 -2 53 -17 102 -33z m-137 -2 c3 -9 -3 -13 -19 -10 -12 1 -24 9 -27
16 -3 9 3 13 19 10 12 -1 24 -9 27 -16z m230 -72 c5 -15 -10 -12 -135 26 -48
15 -83 31 -83 38 0 17 212 -46 218 -64z m-240 32 c3 -9 -2 -13 -14 -10 -9 1
-19 9 -22 16 -3 9 2 13 14 10 9 -1 19 -9 22 -16z m239 -67 c12 -12 -59 1 -143
26 -41 12 -74 27 -74 34 0 12 202 -43 217 -60z m220 58 c29 -10 53 -24 53 -30
0 -9 -7 -10 -22 -4 -13 5 -42 14 -65 20 -24 7 -43 16 -43 21 0 14 16 12 77 -7z
m-459 -36 c2 -12 -3 -17 -17 -17 -15 0 -21 6 -21 21 0 25 33 22 38 -4z m4813
-104 c-11 -27 -25 -88 -32 -134 l-13 -84 -9 44 c-11 54 2 127 40 229 l28 74 3
-39 c2 -23 -6 -61 -17 -90z m-4674 85 l94 -22 -5 -35 c-15 -99 -47 -310 -52
-340 l-5 -34 -106 7 c-59 3 -108 8 -110 10 -2 2 3 44 11 92 8 49 20 134 27
189 7 55 15 104 19 108 4 4 46 -2 95 -13 49 -11 93 -19 98 -17 5 1 -36 14 -92
27 -85 20 -101 27 -101 43 0 13 5 17 16 13 9 -3 59 -16 111 -28z m310 15 c29
-10 53 -21 53 -25 0 -11 -6 -10 -72 8 -32 9 -58 21 -58 25 0 13 17 11 77 -8z
m1 -36 c40 -11 59 -37 27 -37 -8 0 -15 5 -15 11 0 5 -4 8 -9 4 -5 -3 -20 -1
-33 4 -13 5 -31 12 -41 15 -10 3 -15 11 -12 17 4 6 14 8 24 4 9 -3 35 -11 59
-18z m-462 -19 c-3 -18 -12 -91 -21 -163 -23 -200 -25 -215 -37 -215 -11 0
-10 19 13 283 11 116 14 127 32 127 16 0 18 -5 13 -32z m2334 -340 l0 -68 -84
0 -83 0 -65 50 -65 50 -6 98 c-4 53 -7 131 -7 172 l0 75 155 -155 155 -155 0
-67z m1624 335 c-28 -127 -88 -223 -177 -287 -109 -76 -236 -108 -348 -88 -68
13 -208 66 -185 70 9 2 46 -9 83 -24 86 -35 214 -44 283 -20 25 9 34 13 20 10
-14 -3 -63 -7 -110 -9 l-85 -4 70 10 c101 14 101 16 0 16 -90 0 -194 25 -202
49 -2 6 20 21 49 34 68 30 174 79 263 120 101 46 267 120 271 120 2 0 4 -11 4
-23 0 -43 -59 -144 -112 -192 -27 -25 -45 -45 -39 -45 7 0 39 26 72 58 32 32
61 57 63 55 2 -2 6 3 10 12 3 9 2 13 -4 10 -6 -3 -7 1 -4 9 3 9 10 14 14 11
13 -8 32 62 25 86 -5 14 -1 25 12 34 27 21 34 18 27 -12z m-3508 -11 c8 -5 2
-42 -20 -122 l-31 -114 -39 -8 c-21 -5 -41 -6 -44 -3 -3 2 8 63 24 135 l29
131 35 -6 c19 -4 40 -10 46 -13z m459 -11 c3 -5 1 -12 -5 -16 -6 -3 -19 -24
-30 -45 -67 -132 -39 -286 71 -384 65 -59 121 -81 209 -81 62 0 86 5 132 28
100 49 168 146 176 250 4 49 7 57 25 57 18 0 19 -5 15 -64 -9 -101 -65 -198
-148 -251 -35 -22 -183 -55 -247 -55 -99 0 -221 87 -275 198 -30 60 -33 76
-33 152 0 75 4 93 32 153 24 50 37 67 52 67 11 0 22 -4 26 -9z m-426 -88 c-28
-133 -28 -133 -44 -133 -19 0 -20 -8 11 115 16 65 31 105 39 105 10 0 9 -20
-6 -87z m434 20 c-19 -31 -28 -55 -23 -67 5 -15 9 -10 18 20 6 22 23 53 38 69
18 22 21 23 10 5 -25 -38 -19 -48 10 -15 14 17 22 23 18 15 -4 -8 -13 -22 -20
-30 -7 -9 -20 -42 -28 -74 -46 -177 108 -325 288 -275 50 14 122 81 137 127
12 39 29 65 29 44 0 -6 -8 -34 -19 -61 -10 -28 -16 -52 -13 -55 2 -3 -1 -12
-8 -21 -7 -8 -10 -15 -7 -15 16 0 64 85 79 140 17 64 17 64 12 15 -13 -112
-98 -219 -197 -246 -107 -29 -228 2 -295 75 -67 73 -77 99 -77 207 0 93 1 97
35 146 44 64 53 61 13 -4z m2994 35 c-3 -8 -6 -5 -6 6 -1 11 2 17 5 13 3 -3 4
-12 1 -19z m-3227 2 c0 -5 -5 -10 -11 -10 -5 0 -7 5 -4 10 3 6 8 10 11 10 2 0
4 -4 4 -10z m80 -5 c0 -8 -7 -15 -15 -15 -16 0 -20 12 -8 23 11 12 23 8 23 -8z
m-43 -1 c-3 -3 -12 -4 -19 -1 -8 3 -5 6 6 6 11 1 17 -2 13 -5z m629 -140 c7
-39 -9 -114 -33 -150 -20 -31 -87 -70 -134 -79 -110 -20 -228 83 -229 199 0
47 32 119 66 145 25 19 25 19 174 -31 l149 -50 7 -34z m-692 59 c-7 -41 -19
-61 -30 -50 -10 10 15 87 27 87 6 0 7 -15 3 -37z m42 15 c-3 -13 -6 -33 -6
-45 0 -15 -6 -23 -16 -23 -13 0 -15 7 -10 31 3 17 6 38 6 45 0 8 7 14 16 14
12 0 15 -6 10 -22z m51 8 c-3 -8 -9 -31 -13 -50 -6 -37 -34 -51 -34 -17 0 49
13 81 32 81 13 0 18 -5 15 -14z m3520 -85 c-30 -74 -80 -159 -126 -212 -18
-22 -31 -42 -28 -45 8 -9 120 130 161 201 43 72 60 82 26 13 -20 -39 -80 -122
-161 -223 l-33 -40 43 40 c23 22 61 65 84 95 59 79 63 82 31 21 -28 -53 -163
-200 -234 -255 l-35 -27 45 27 c25 15 72 50 105 78 33 28 51 40 40 26 -56 -67
-173 -152 -257 -187 -61 -25 -67 -25 -218 -19 -85 4 -173 10 -195 15 -39 8
-38 9 25 11 l65 3 -90 8 c-49 4 -121 12 -160 18 -64 9 -61 9 40 5 61 -3 121
-7 133 -10 13 -3 21 -1 18 4 -3 5 -41 12 -85 16 -93 7 -290 42 -300 52 -3 3
10 4 29 1 123 -20 398 -29 576 -19 104 6 200 14 214 17 20 5 22 4 8 -4 -9 -6
-43 -17 -75 -25 -44 -11 -51 -15 -27 -15 39 -1 109 23 151 52 36 24 45 44 13
27 -11 -6 -48 -10 -83 -8 l-62 3 60 40 c125 82 279 264 310 363 4 13 9 21 12
19 2 -3 -7 -33 -20 -66z m-1739 -41 c-4 -3 -4 -10 0 -16 15 -22 111 -91 165
-119 31 -15 57 -32 57 -37 0 -10 -8 -6 -55 25 l-30 20 30 -33 c47 -51 14 -32
-79 48 -49 42 -95 90 -106 113 -25 48 -32 50 -19 7 8 -33 28 -53 145 -154 32
-29 56 -55 52 -59 -5 -5 -34 16 -65 46 -32 30 -71 64 -86 76 -16 12 -37 39
-48 60 -17 33 -19 35 -19 12 0 -14 6 -31 13 -38 10 -11 5 -13 -28 -7 -22 3
-46 6 -52 6 -24 0 -13 18 50 84 l62 65 10 -47 c6 -26 7 -49 3 -52z m2137 -150
c10 -19 30 -53 46 -76 15 -22 31 -53 34 -67 6 -23 1 -29 -42 -56 l-48 -30 -6
47 c-3 26 -16 66 -27 89 -46 89 -48 177 -5 270 l17 38 6 -90 c4 -56 13 -103
25 -125z m-3278 163 c-3 -10 -5 -4 -5 12 0 17 2 24 5 18 2 -7 2 -21 0 -30z
m20 5 c-3 -7 -5 -2 -5 12 0 14 2 19 5 13 2 -7 2 -19 0 -25z m-1847 -76 c120
-160 114 -150 100 -167 -7 -8 -16 -15 -20 -15 -5 0 -40 44 -78 98 -49 68 -71
108 -74 135 -2 20 -2 37 2 37 3 -1 34 -40 70 -88z m1090 50 c0 -21 -2 -24 -10
-12 -13 20 -13 53 0 45 6 -3 10 -18 10 -33z m4580 -2 c-7 -37 -104 -194 -137
-222 -13 -11 -43 5 -43 22 0 8 178 240 184 240 2 0 0 -18 -4 -40z m-4546 18
c3 -7 7 -31 10 -52 4 -34 3 -37 -8 -25 -18 19 -31 89 -16 89 6 0 12 -6 14 -12z
m53 -50 c6 -35 9 -65 7 -66 -6 -7 -32 55 -39 91 -6 29 -4 37 7 37 10 0 18 -20
25 -62z m663 -34 c-7 -24 -19 -49 -26 -55 -9 -8 -7 3 6 32 11 24 20 58 21 74
1 19 3 23 6 11 3 -10 -1 -38 -7 -62z m-807 -51 c67 -60 164 -144 215 -188 81
-71 89 -81 72 -89 -15 -7 -30 -1 -67 30 -97 79 -378 327 -386 340 -6 10 -1 14
18 14 18 0 60 -31 148 -107z m-181 75 c13 -13 93 -84 177 -158 85 -74 174
-153 199 -176 l45 -41 -18 -52 c-13 -33 -24 -50 -32 -47 -7 3 -55 36 -105 74
-51 38 -154 112 -228 165 -174 125 -170 121 -170 141 0 10 5 37 11 61 9 36 16
45 38 48 53 8 60 7 83 -15z m3011 -45 c-7 -2 -19 -2 -25 0 -7 3 -2 5 12 5 14
0 19 -2 13 -5z m-1853 -29 c0 -8 -6 -14 -14 -14 -9 0 -12 7 -9 20 6 22 23 18
23 -6z m-1997 -72 c70 -96 60 -89 400 -294 l95 -58 6 -82 c3 -46 8 -126 12
-179 l6 -97 146 -103 c81 -56 213 -149 293 -206 l147 -103 7 -713 c3 -391 5
-812 3 -934 l-3 -222 -72 52 c-40 29 -178 126 -307 216 -130 90 -239 169 -244
175 -5 6 -21 232 -36 501 -15 270 -30 520 -33 557 -6 71 -7 72 -120 201 -22
26 -25 41 -35 183 -5 85 -7 158 -4 161 4 4 28 -13 54 -38 26 -25 76 -69 112
-99 l65 -54 -70 72 -69 72 -7 122 c-4 68 -8 150 -8 183 l-1 60 -184 180 -185
180 -6 65 c-9 102 -25 243 -31 268 -2 12 -2 22 0 22 2 0 34 -40 69 -88z m2037
67 c0 -5 -4 -9 -10 -9 -5 0 -10 7 -10 16 0 8 5 12 10 9 6 -3 10 -10 10 -16z
m3589 -121 c-23 -185 -50 -246 -195 -448 -104 -145 -143 -214 -182 -322 -33
-91 -62 -234 -62 -304 0 -158 -102 -474 -200 -619 -39 -59 -45 -74 -16 -42 64
69 148 248 196 412 l17 59 6 -47 c4 -26 3 -55 -2 -65 -5 -9 -16 -44 -26 -77
-9 -33 -37 -97 -61 -143 -53 -102 -40 -98 21 6 36 61 45 72 47 52 0 -15 4 -6
9 20 5 32 7 17 4 -50 -3 -85 -20 -159 -59 -275 -4 -11 2 -4 12 15 38 68 65
205 60 306 -4 106 6 118 16 17 14 -145 -56 -381 -158 -538 l-26 -40 33 38 c56
61 95 151 151 342 l14 50 -5 -45 c-17 -138 -95 -329 -165 -406 -41 -46 -41
-47 -9 -24 49 34 107 130 141 234 16 50 29 83 30 73 0 -29 -49 -167 -82 -229
-17 -32 -47 -75 -68 -98 -30 -33 -44 -40 -73 -40 -108 0 -80 166 54 325 55 65
109 166 109 204 0 17 -8 7 -30 -35 -33 -63 -49 -80 -208 -217 -112 -97 -142
-131 -171 -198 -40 -93 -36 -178 14 -237 l25 -30 -27 -26 c-30 -30 -56 -39
-104 -34 -52 5 -79 52 -80 142 l-1 71 -15 -45 c-19 -59 -27 -156 -18 -216 5
-34 15 -55 37 -76 l30 -28 -26 0 c-93 0 -82 286 20 517 36 80 44 103 38 103
-3 0 -23 -37 -44 -82 -83 -173 -118 -416 -73 -506 19 -40 15 -53 -13 -34 -16
10 -44 68 -44 89 1 14 29 -50 30 -66 0 -2 2 -2 5 0 2 3 -2 27 -10 54 -29 96
-15 227 40 365 36 91 73 149 215 341 138 184 189 278 245 443 60 179 64 317
14 461 -31 87 -34 89 -78 58 -20 -15 -37 -28 -39 -28 -1 -1 5 -16 14 -33 8
-17 22 -66 31 -109 51 -251 -112 -524 -350 -584 -44 -11 -45 -12 -49 -57 -3
-26 -3 -49 -1 -51 1 -2 28 1 58 8 80 18 181 72 249 133 70 62 68 47 -12 -71
-38 -56 -110 -137 -215 -240 -93 -92 -174 -180 -195 -215 -27 -44 -38 -55 -41
-41 -6 32 4 1074 11 1080 3 4 15 0 27 -7 21 -13 21 -18 22 -433 2 -486 14
-455 24 65 5 211 12 350 18 358 6 7 103 79 216 159 113 80 240 170 283 200
l76 55 6 96 c17 266 16 262 39 274 12 6 48 29 81 50 32 21 60 37 62 35 3 -2
-13 -26 -35 -53 -82 -104 -130 -249 -136 -414 -4 -104 -4 -104 5 -30 23 183
77 324 154 404 34 35 53 46 75 46 51 0 60 -41 36 -150 -5 -20 -2 -18 14 10 26
46 28 130 4 152 -10 9 -27 18 -38 21 -17 4 -16 5 5 7 60 6 72 -4 81 -68 l6
-47 2 45 c0 28 -5 55 -15 69 -14 20 -23 22 -56 18 -34 -5 -37 -3 -27 10 7 8
42 35 77 60 75 54 86 49 78 -37 -4 -44 -3 -50 5 -30 6 14 10 46 10 73 0 52 14
62 30 20 12 -33 -2 -105 -32 -166 -12 -23 -56 -92 -99 -152 -69 -98 -140 -221
-140 -242 0 -4 20 26 44 67 24 41 79 122 121 180 96 130 128 196 133 275 3 51
1 63 -16 79 -21 18 -21 18 40 102 34 46 65 84 68 84 4 0 -1 -60 -11 -132z
m-3601 85 c-2 -9 -8 -18 -15 -20 -7 -3 -9 3 -6 16 6 25 26 28 21 4z m448 5 c5
-7 25 -59 44 -116 19 -56 36 -99 38 -94 1 4 -11 47 -27 95 -16 48 -29 87 -27
87 1 0 19 -9 41 -20 30 -16 59 -20 127 -20 l88 0 0 -90 0 -90 -109 0 -109 0
-17 43 c-17 40 -75 207 -75 214 0 8 19 2 26 -9z m-1965 -14 c77 -7 110 -17 96
-30 -7 -7 -167 22 -202 38 -17 7 -16 8 5 4 14 -3 59 -8 101 -12z m1458 -10
c-14 -18 -24 -11 -15 11 3 9 11 13 16 10 8 -5 7 -11 -1 -21z m259 18 c-1 -4
-29 -44 -60 -88 -56 -79 -60 -82 -119 -98 -33 -10 -59 -20 -56 -22 3 -3 29 2
59 10 46 13 50 14 34 1 -25 -19 -18 -19 28 0 25 11 53 39 91 90 31 41 60 75
65 75 8 0 -24 -47 -105 -154 -21 -28 -8 -23 -560 -186 -115 -34 -222 -65 -237
-70 -22 -7 -35 -3 -70 22 -24 17 -47 34 -51 38 -12 10 38 106 59 114 10 4 101
20 203 36 511 80 585 94 600 110 25 26 54 62 79 98 20 28 50 46 40 24z m-16
-75 c-26 -34 -55 -73 -64 -86 -10 -14 -20 -23 -23 -20 -6 7 118 177 127 172 4
-2 -14 -31 -40 -66z m-1597 2 c5 -6 1 -9 -10 -9 -31 0 -235 52 -235 60 0 9
232 -39 245 -51z m1845 -95 c21 -63 35 -114 31 -114 -3 0 -24 53 -45 118 -50
150 -50 151 -36 129 7 -10 29 -70 50 -133z m-79 99 c-12 -20 -14 -14 -5 12 4
9 9 14 11 11 3 -2 0 -13 -6 -23z m-1883 -9 c104 -26 132 -37 120 -49 -6 -7
-212 51 -238 66 -26 15 5 10 118 -17z m270 -17 c31 -24 158 -116 282 -204 124
-88 235 -169 247 -179 19 -17 28 -58 72 -326 28 -169 51 -312 51 -318 0 -6
-39 20 -87 58 -49 38 -171 132 -273 211 -102 78 -197 153 -211 166 -15 13 -36
28 -46 34 -23 12 -21 1 -68 328 -37 254 -39 273 -29 273 3 0 31 -19 62 -43z
m1471 -36 c-29 -39 -55 -68 -57 -66 -3 2 19 36 48 75 29 39 55 69 57 66 3 -2
-19 -36 -48 -75z m1015 5 c26 -41 60 -85 74 -98 23 -21 23 -19 -5 17 -17 22
-40 59 -52 82 -11 23 -25 44 -31 48 -5 3 -10 11 -10 18 0 13 14 -5 83 -105 49
-71 129 -164 173 -198 18 -14 18 -14 4 6 -8 12 -25 36 -38 53 l-23 30 63 -29
c68 -31 187 -65 264 -75 36 -4 17 4 -66 30 -115 36 -203 77 -250 116 -20 17
-21 19 -5 13 151 -57 318 -96 498 -116 98 -11 107 -14 107 -33 0 -11 9 -38 20
-60 11 -22 20 -40 20 -41 0 -1 -28 7 -62 18 -141 43 -240 32 -273 -31 -8 -17
-18 -31 -21 -31 -3 0 -55 24 -117 54 -154 75 -280 184 -357 311 -13 21 -32 47
-42 57 -10 10 -18 23 -18 28 0 24 20 5 64 -64z m-2901 -71 c119 -71 217 -133
217 -137 0 -3 -13 -11 -29 -16 -27 -10 -41 -3 -178 80 -81 50 -176 107 -210
127 -34 20 -63 41 -63 47 0 14 23 35 36 32 6 -2 108 -61 227 -133z m1577 120
c-7 -9 -15 -13 -17 -11 -7 7 7 26 19 26 6 0 6 -6 -2 -15z m3550 -1 c18 -21 17
-22 -214 -163 -183 -112 -202 -121 -223 -110 -13 7 -23 16 -23 20 0 10 416
266 436 268 6 1 17 -6 24 -15z m-2261 -58 c6 -4 11 -13 11 -19 0 -7 -16 6 -35
27 -19 21 -32 43 -29 48 4 5 14 -4 24 -20 10 -16 23 -33 29 -36z m-906 -40
c-26 -42 -51 -76 -55 -76 -23 0 7 58 72 139 43 53 33 17 -17 -63z m122 -10
c20 -57 35 -112 33 -122 -4 -18 -78 186 -78 214 0 27 9 8 45 -92z m-1915 64
c58 -16 106 -30 107 -30 2 0 3 -6 3 -14 0 -10 -28 -5 -114 23 -110 35 -146 51
-115 51 8 0 61 -13 119 -30z m1894 -106 c21 -58 35 -112 32 -121 -4 -9 -8 -14
-10 -12 -5 5 -76 221 -76 231 0 4 4 8 9 8 4 0 25 -47 45 -106z m-1891 65 c92
-29 131 -49 108 -57 -8 -3 -210 73 -219 83 -10 10 10 5 111 -26z m1870 -113
l36 -100 -71 -118 c-38 -65 -74 -118 -78 -118 -4 0 -10 75 -12 168 -4 166 -4
167 22 204 14 21 28 38 31 38 4 0 19 -34 34 -75 15 -42 29 -74 31 -72 2 2 -7
35 -21 73 -25 68 -34 127 -16 109 5 -6 25 -55 44 -109z m-1755 15 c2 -13 0
-22 -5 -20 -21 10 -163 91 -163 94 0 2 37 -9 83 -24 68 -23 83 -32 85 -50z
m2999 43 c-3 -3 -12 -4 -19 -1 -8 3 -5 6 6 6 11 1 17 -2 13 -5z m66 -11 c-7
-2 -21 -2 -30 0 -10 3 -4 5 12 5 17 0 24 -2 18 -5z m-1475 -39 c2 -16 -11 -23
-85 -43 -308 -84 -748 -212 -757 -221 -8 -8 144 28 267 65 28 8 51 14 52 12 1
-1 5 -21 8 -44 3 -29 1 -46 -9 -54 -18 -15 -17 -65 5 -224 24 -168 26 -142 4
54 -16 146 -16 154 1 166 13 10 16 24 14 61 l-3 47 65 19 c36 10 148 44 249
74 101 30 185 53 187 51 3 -2 7 -83 11 -179 l6 -176 -39 -24 c-274 -174 -736
-459 -739 -456 -5 5 -113 642 -110 646 1 1 134 41 296 88 162 48 353 103 424
124 72 21 135 37 140 36 6 -1 11 -11 13 -22z m532 -469 c0 -250 -3 -455 -6
-455 -3 0 -53 25 -110 56 l-104 56 0 217 c0 120 3 300 7 399 l6 182 104 0 103
0 0 -455z m-2909 412 c16 -12 32 -67 20 -67 -17 0 -39 27 -43 53 -6 30 -1 33
23 14z m2649 -384 l0 -378 -62 -33 c-33 -18 -64 -29 -68 -25 -4 4 -26 112 -49
240 l-42 232 44 68 c24 37 66 102 93 143 l49 75 5 -210 6 -210 2 231 c2 203 5
244 19 244 2 0 3 -170 3 -377z m-2698 345 c16 -13 31 -58 20 -58 -15 1 -39 26
-44 48 -7 25 1 28 24 10z m112 -4 c16 -16 22 -54 9 -54 -17 0 -30 16 -35 43
-6 30 3 34 26 11z m279 -262 c4 -43 13 -158 21 -257 9 -99 20 -233 25 -297 l9
-117 71 -82 c39 -45 71 -87 71 -93 0 -6 14 -225 30 -486 32 -514 35 -599 20
-584 -5 5 -18 108 -30 229 -28 293 -47 467 -48 430 -1 -16 9 -165 22 -330 13
-165 22 -302 19 -305 -13 -14 -23 61 -73 517 -30 274 -56 491 -58 482 -3 -16
59 -688 78 -844 12 -97 12 -115 2 -115 -5 0 -14 44 -21 98 -16 131 -64 540
-92 792 -13 113 -25 198 -27 189 -3 -17 55 -595 88 -882 11 -93 20 -171 20
-174 0 -3 -7 0 -15 7 -8 7 -15 25 -15 40 0 16 -16 160 -35 322 -59 494 -94
783 -121 1018 -14 124 -32 270 -39 325 l-14 100 5 -80 c3 -44 12 -134 19 -200
8 -66 28 -246 45 -400 44 -405 119 -1057 124 -1077 5 -21 2 -22 -24 -8 -22 12
-8 -88 -160 1160 -82 680 -100 826 -106 865 l-6 40 105 -103 104 -104 6 -76z
m390 171 c12 -179 10 -221 -14 -233 -11 -7 -22 -10 -24 -8 -2 2 -7 72 -11 155
-5 117 -4 156 6 168 28 34 37 16 43 -82z m4455 85 c19 -19 12 -328 -8 -328 -3
0 -14 6 -23 13 -16 11 -17 28 -11 170 7 157 12 175 42 145z m547 -75 c-20
-211 -23 -221 -76 -285 -120 -144 -144 -275 -82 -438 50 -132 53 -160 36 -299
-18 -153 -23 -168 -35 -116 -4 22 -26 94 -48 160 -70 213 -91 310 -91 416 0
132 16 196 78 299 62 103 73 105 23 5 -36 -72 -53 -121 -61 -173 -15 -101 -6
-101 14 0 10 52 33 116 63 177 26 53 48 98 49 101 0 3 22 38 49 79 26 41 55
89 64 107 8 19 17 34 20 34 2 0 1 -30 -3 -67z m-5722 43 c9 -7 17 -23 17 -35
0 -18 -3 -20 -19 -9 -11 6 -21 22 -24 35 -5 26 0 28 26 9z m-33 -58 c0 -15 -3
-17 -19 -9 -18 10 -31 32 -31 52 0 5 11 2 25 -7 14 -9 25 -25 25 -36z m86 24
c6 -4 13 -17 17 -30 4 -18 2 -22 -11 -20 -8 2 -19 15 -23 31 -7 27 -3 33 17
19z m-44 -39 c19 -17 24 -43 9 -43 -6 0 -17 10 -25 22 -27 38 -17 51 16 21z
m-92 -41 c0 -12 -4 -12 -20 3 -11 10 -20 25 -20 33 0 12 4 12 20 -3 11 -10 20
-25 20 -33z m45 18 c10 -11 15 -20 11 -20 -14 0 -46 21 -46 30 0 16 16 11 35
-10z m5106 -7 c-18 -35 -177 -181 -240 -221 -64 -42 -169 -87 -179 -77 -6 6
-16 0 100 58 81 40 113 64 205 152 105 102 133 123 114 88z m-4997 -15 c21
-30 7 -47 -16 -19 -10 13 -18 27 -18 32 0 16 19 9 34 -13z m-94 -40 c0 -5 -9
-4 -20 2 -11 6 -20 18 -20 27 0 14 2 14 20 -2 11 -10 20 -22 20 -27z m55 11
c4 -6 4 -13 1 -16 -7 -7 -46 26 -46 39 0 10 36 -8 45 -23z m-110 -17 c-6 -7
-35 18 -35 31 0 5 9 2 20 -8 11 -10 18 -20 15 -23z m165 -27 c0 -21 -17 -18
-30 4 -15 28 -13 33 10 21 11 -6 20 -17 20 -25z m-110 -7 c0 -12 -14 -10 -28
4 -19 19 -14 29 8 16 11 -7 20 -16 20 -20z m42 15 c27 -24 22 -36 -7 -17 -14
9 -25 20 -25 25 0 14 11 11 32 -8z m-102 -8 c7 -8 8 -15 2 -15 -5 0 -15 7 -22
15 -7 8 -8 15 -2 15 5 0 15 -7 22 -15z m55 -35 c10 -11 14 -20 8 -20 -5 0 -18
9 -28 20 -10 11 -14 20 -8 20 5 0 18 -9 28 -20z m448 -5 c26 -23 28 -29 41
-187 7 -90 12 -164 11 -166 -2 -2 -19 11 -38 28 l-35 30 -6 118 c-4 64 -8 136
-10 160 -2 23 -1 42 3 42 3 0 18 -12 34 -25z m-493 -17 c0 -6 -7 -5 -15 2 -8
7 -15 17 -15 22 0 6 7 5 15 -2 8 -7 15 -17 15 -22z m119 -9 c3 -11 -1 -10 -19
2 -13 9 -26 22 -29 30 -3 11 1 10 19 -2 13 -9 26 -22 29 -30z m51 11 c0 -14
-14 -12 -28 2 -19 19 -14 30 8 18 11 -6 20 -15 20 -20z m-124 -21 c19 -22 19
-22 -3 -10 -13 6 -23 16 -23 21 0 15 5 12 26 -11z m65 -26 l24 -26 -32 23
c-34 25 -39 30 -25 30 5 0 19 -12 33 -27z m47 15 c14 -14 16 -28 2 -28 -5 0
-14 9 -20 20 -12 22 -1 27 18 8z m-108 -23 c11 -13 10 -14 -4 -9 -9 3 -16 10
-16 15 0 13 6 11 20 -6z m816 -23 c21 -16 86 -61 144 -102 58 -41 168 -119
244 -174 l139 -100 -30 -14 c-29 -14 -31 -12 -119 50 -49 36 -174 124 -279
198 -104 73 -192 134 -194 136 -6 6 31 33 45 34 5 0 28 -13 50 -28z m4348 13
c11 -8 18 -16 15 -18 -2 -2 -60 -44 -129 -92 -69 -49 -151 -107 -182 -129 -32
-23 -80 -57 -108 -76 -28 -19 -72 -50 -97 -69 -43 -32 -46 -33 -76 -19 l-30
14 174 125 c96 69 221 160 279 201 58 42 112 76 120 77 8 0 24 -6 34 -14z
m-5084 -38 c0 -4 -11 0 -25 10 -13 10 -25 22 -25 26 0 4 11 0 25 -10 13 -10
25 -22 25 -26z m2366 -201 c23 -125 45 -234 48 -243 3 -8 53 -37 111 -64 58
-27 153 -72 212 -99 166 -78 114 -70 -67 10 -89 39 -164 70 -166 67 -6 -6 85
-48 228 -108 96 -39 129 -59 98 -59 -6 0 -69 25 -141 55 -72 30 -134 55 -137
55 -13 -1 32 -23 156 -77 70 -29 129 -56 131 -59 3 -3 -1 -9 -9 -14 -10 -7
-11 -10 -2 -10 9 0 12 -24 12 -86 l0 -86 -53 4 c-29 2 -78 15 -110 28 l-56 23
-182 -53 c-99 -29 -231 -70 -292 -90 l-112 -36 -26 -50 c-31 -57 -46 -114 -30
-114 6 0 11 4 11 9 0 14 92 69 141 86 24 8 124 28 221 45 153 26 186 29 245
21 37 -6 107 -13 156 -16 l87 -7 0 -103 0 -103 -222 -4 -223 -4 -60 28 c-33
15 -66 28 -74 28 -23 0 16 -37 75 -70 48 -28 59 -30 160 -31 88 -1 100 -3 64
-10 -92 -16 -158 -11 -207 16 -25 14 -48 24 -50 21 -3 -2 15 -15 39 -27 23
-12 38 -24 31 -26 -7 -2 -21 1 -32 7 -12 6 -21 8 -21 6 0 -3 15 -13 32 -22 29
-15 31 -18 14 -24 -17 -6 -17 -7 -4 -13 13 -4 15 -13 8 -41 -4 -20 -4 -39 1
-42 5 -3 9 4 9 15 0 20 6 21 90 21 53 0 90 -4 90 -10 0 -6 -37 -11 -87 -12
-73 -1 -80 -2 -43 -8 43 -7 44 -7 10 -9 -65 -4 -122 -12 -143 -20 -20 -8 -76
-101 -194 -321 -17 -30 -49 -90 -72 -132 l-42 -77 -46 52 c-25 29 -50 54 -55
58 -7 5 -57 704 -74 1042 -8 159 2 138 -156 329 -48 58 -88 110 -88 115 0 4
78 57 173 116 94 60 260 164 367 232 107 68 199 122 204 121 5 -1 29 -105 52
-230z m-2321 214 c3 -5 -1 -10 -9 -10 -9 0 -16 5 -16 10 0 6 4 10 9 10 6 0 13
-4 16 -10z m0 -41 c11 -17 -1 -21 -15 -4 -8 9 -8 15 -2 15 6 0 14 -5 17 -11z
m5556 -226 c-12 -98 -24 -191 -28 -208 -6 -30 -6 -29 -24 20 -30 86 -19 188
37 334 38 97 40 73 15 -146z m-31 143 c-12 -26 -28 -79 -36 -119 -19 -92 -29
-100 -20 -17 4 42 17 87 37 128 35 73 50 79 19 8z m-1553 1 c-79 -103 -117
-183 -141 -297 -13 -59 -14 -61 -15 -25 -2 91 57 240 125 315 44 48 66 53 31
7z m143 28 c0 -1 -19 -15 -41 -30 -23 -15 -62 -46 -88 -69 l-46 -41 29 40 c55
76 87 104 117 103 16 -1 29 -2 29 -3z m50 -9 c0 -2 -29 -20 -65 -41 -62 -37
-107 -78 -167 -153 -16 -19 -28 -30 -28 -23 0 22 107 136 168 178 54 37 92 53
92 39z m-432 -181 c-41 -122 -50 -182 -52 -342 -1 -105 -5 -145 -15 -155 -11
-11 -12 14 -8 157 4 142 9 185 31 264 27 97 53 161 65 161 4 0 -6 -38 -21 -85z
m-571 -48 c-14 -23 -43 -62 -65 -87 l-39 -44 -36 27 c-46 35 -72 72 -85 122
l-11 40 26 -30 c69 -80 115 -85 168 -17 47 59 39 32 -16 -51 -32 -49 -34 -55
-10 -27 17 19 43 59 58 88 16 30 29 46 31 37 2 -9 -8 -35 -21 -58z m2133 -45
c6 -45 38 -166 70 -268 86 -268 98 -394 51 -554 -20 -71 -69 -186 -75 -179 -3
2 2 29 10 59 8 30 17 89 19 130 l5 75 -14 -76 c-45 -251 -137 -404 -289 -479
-111 -55 -215 -42 -253 32 -21 40 -14 129 14 184 22 43 138 171 126 139 -3
-11 -13 -36 -20 -55 -7 -19 -13 -58 -14 -87 0 -97 70 -144 155 -103 90 43 169
171 199 322 21 100 20 299 0 458 -18 141 -23 346 -11 433 5 32 10 57 12 55 2
-2 8 -40 15 -86z m-2647 -44 c44 -23 75 -44 69 -46 -16 -5 -5 -22 14 -22 9 0
12 5 8 12 -4 7 -3 8 5 4 6 -4 8 -12 5 -18 -4 -6 2 -8 17 -3 16 4 20 3 11 -3
-11 -7 -10 -11 4 -16 9 -3 14 -9 11 -12 -2 -3 -65 25 -138 61 -96 49 -128 69
-118 76 21 13 25 12 112 -33z m1634 -45 c10 -104 11 -405 2 -553 -5 -66 -4
-90 2 -65 4 22 14 123 21 225 l13 185 5 -145 5 -145 8 85 c4 47 9 105 10 130
2 25 4 -38 5 -140 l2 -184 -46 -161 c-26 -88 -64 -200 -86 -250 -50 -115 -53
-124 -33 -100 36 44 96 187 126 300 17 66 33 122 36 125 2 3 3 -60 1 -140 l-4
-145 -66 -140 c-37 -77 -69 -154 -73 -170 l-6 -30 16 28 c9 15 18 27 22 27 11
0 -8 -224 -23 -277 -8 -28 -28 -68 -44 -89 -40 -49 -38 -55 5 -14 52 51 67
104 72 265 5 161 9 193 25 177 7 -7 9 -57 6 -149 -4 -112 -9 -147 -27 -187
-32 -72 -20 -81 15 -11 29 59 29 62 29 232 0 94 3 174 7 178 11 11 9 -308 -2
-361 -13 -59 -81 -146 -249 -319 -59 -60 -136 -143 -171 -184 -59 -67 -65 -72
-73 -53 -8 18 2 33 72 103 80 81 198 243 240 329 25 52 9 34 -32 -35 -40 -67
-43 -50 -5 21 31 56 33 66 36 179 2 66 1 117 -3 113 -5 -4 -8 -54 -9 -111 -1
-95 -3 -107 -34 -169 -18 -37 -56 -92 -84 -123 -27 -30 -45 -55 -40 -55 6 0
31 24 56 52 55 63 60 53 9 -22 -45 -68 -219 -248 -229 -238 -4 4 31 44 77 87
46 44 81 80 78 81 -3 0 -42 -31 -85 -70 -71 -62 -80 -68 -91 -53 -19 25 -16
30 24 50 43 20 140 117 183 182 47 71 35 70 -19 -1 -58 -76 -175 -178 -206
-178 -6 0 -85 146 -175 325 -147 290 -168 326 -192 332 -27 5 -27 6 -12 35 9
16 13 32 10 35 -3 3 -13 -11 -22 -31 l-18 -36 -72 0 c-95 0 -104 4 -104 47 l0
36 21 -27 c54 -69 101 -56 153 44 20 37 36 73 36 78 0 6 5 23 10 38 11 27 12
26 53 -57 35 -70 46 -85 68 -87 32 -4 42 9 89 104 l37 76 12 -31 c28 -66 60
-65 106 4 35 52 45 56 45 17 0 -55 29 -130 61 -156 41 -35 97 -35 137 -1 30
25 112 146 149 220 24 47 83 221 83 244 0 9 -20 -28 -44 -82 -85 -187 -203
-347 -258 -347 -17 0 -12 6 23 28 24 16 53 42 63 58 l19 29 -34 -31 c-46 -43
-98 -69 -111 -56 -7 7 0 15 23 25 109 46 237 254 276 448 10 51 19 75 24 67
11 -17 1 254 -16 415 -12 121 -11 167 4 167 10 0 53 -285 60 -395 l6 -90 8 64
c8 60 4 231 -9 414 -8 108 12 99 23 -10z m-3048 -960 l1 -832 -21 -11 c-11 -7
-23 -9 -27 -6 -3 4 -8 424 -10 934 l-5 928 24 10 24 11 6 -101 c4 -56 7 -475
8 -933z m3009 950 l1 -78 -15 70 c-14 69 -12 101 4 91 5 -3 9 -40 10 -83z
m-1587 -4 c78 -38 139 -72 136 -75 -5 -5 -297 133 -297 141 0 12 29 1 161 -66z
m-26 -16 c85 -43 155 -81 155 -86 0 -4 -8 -3 -17 2 -26 13 -210 100 -260 122
-24 10 -43 23 -43 29 0 5 2 10 5 10 3 0 75 -35 160 -77z m1682 -50 c-2 -16 -4
-5 -4 22 0 28 2 40 4 28 2 -13 2 -35 0 -50z m-2747 -20 c25 -31 71 -86 103
-124 l58 -68 19 -323 c11 -178 27 -442 36 -588 l17 -265 33 -40 c18 -22 46
-55 63 -73 27 -29 33 -62 11 -62 -5 0 -50 46 -102 102 -51 57 -123 134 -159
173 -36 38 -77 85 -92 103 l-26 32 -2 293 c-1 160 -4 408 -8 550 -3 141 -3
256 1 255 16 -6 158 -192 162 -211 3 -12 19 -249 36 -527 17 -278 33 -509 35
-515 8 -23 4 104 -10 310 -8 121 -19 315 -25 430 -17 352 -7 313 -116 444 -63
74 -94 120 -94 136 0 14 3 25 8 25 4 -1 27 -26 52 -57z m-200 -5 c40 -30 65
-55 59 -59 -8 -5 -8 -8 0 -13 6 -4 11 -11 11 -17 0 -10 -140 80 -140 90 0 3
-3 16 -6 29 -4 12 -3 22 0 22 4 0 38 -23 76 -52z m6 -144 c35 -25 64 -49 64
-55 0 -12 -17 -12 -25 0 -6 11 -105 73 -105 67 0 -3 29 -26 65 -52 61 -45 86
-74 64 -74 -22 0 -139 92 -139 110 0 10 -3 25 -6 34 -11 27 16 18 82 -30z
m2417 -52 c26 -65 39 -161 32 -234 -6 -62 -9 -69 -40 -88 -50 -31 -54 -26 -38
43 11 45 14 93 9 175 -5 109 -2 142 14 142 4 0 15 -17 23 -38z m-47 -190 c-9
-110 -24 -162 -53 -173 -13 -5 -27 -9 -29 -9 -3 0 -4 39 -1 88 3 63 11 105 30
152 l25 65 4 -70 4 -70 3 90 c3 85 4 88 13 45 5 -25 7 -78 4 -118z m-205 131
c0 -10 7 -58 14 -108 l14 -90 -3 90 -4 90 15 -45 c8 -25 17 -88 20 -141 6
-106 5 -110 -60 -198 l-40 -54 -33 36 c-45 47 -54 74 -54 157 0 63 4 75 57
174 55 103 72 124 74 89z m-2163 -53 c40 -28 72 -55 72 -60 0 -16 -8 -12 -67
30 -31 22 -61 40 -67 40 -6 0 21 -23 59 -51 39 -28 71 -57 73 -65 5 -21 -1
-18 -75 33 -37 26 -68 47 -69 47 -6 4 -11 76 -5 76 4 0 40 -23 79 -50z m1924
-17 c15 -32 34 -85 42 -118 20 -78 25 -206 9 -212 -9 -3 -13 20 -16 84 l-3 88
-2 -97 -2 -97 -52 -19 c-72 -26 -101 -32 -114 -24 -20 13 -25 161 -9 232 21
87 83 220 104 220 10 0 27 -23 43 -57z m-297 5 c9 -24 25 -59 35 -78 34 -66
50 -142 50 -236 l0 -91 -31 -7 c-17 -3 -70 -6 -116 -6 l-85 0 4 143 c3 128 6
148 30 200 34 72 65 117 82 117 7 0 21 -19 31 -42z m-378 -39 c130 -58 173
-80 173 -89 0 -23 -74 -7 -166 36 -82 38 -101 44 -123 35 -25 -10 -280 -71
-296 -71 -24 0 15 12 140 44 77 20 150 40 162 46 18 7 43 -1 128 -41 59 -28
112 -48 118 -46 6 2 -8 11 -31 20 -92 37 -162 71 -162 79 0 11 4 11 57 -13z
m-22 -54 c41 -19 75 -36 75 -39 0 -8 -53 10 -99 33 -23 12 -48 20 -54 18 -7
-3 -3 -8 8 -12 85 -29 85 -39 0 -19 -41 9 -68 11 -85 4 -14 -5 -81 -20 -150
-34 -284 -55 -282 -47 5 19 116 27 212 53 213 57 5 11 4 12 87 -27z m195 4 c0
-13 -24 -11 -45 4 -16 13 -15 14 13 9 18 -2 32 -8 32 -13z m-1351 -115 c8 -8
12 -17 8 -20 -4 -4 -34 12 -67 35 -33 23 -60 39 -60 34 1 -4 30 -28 65 -53 38
-27 64 -52 65 -63 0 -15 -16 -8 -77 36 -68 47 -79 59 -84 90 -3 20 -4 39 -1
42 5 4 121 -73 151 -101z m2371 -103 c0 -65 -38 -190 -52 -170 -8 11 -9 11 -5
-3 5 -14 -27 -98 -37 -98 -1 0 3 30 10 68 22 110 15 114 -12 8 -13 -55 -26
-102 -28 -104 -3 -2 -13 16 -23 40 -16 36 -19 60 -15 141 l4 98 55 25 c84 37
79 48 58 -121 -5 -38 -4 -38 5 -10 6 17 13 62 15 100 3 39 5 71 5 73 0 1 5 2
10 2 6 0 10 -22 10 -49z m-2428 -23 c36 -27 69 -55 72 -64 6 -17 -1 -14 -49
21 -53 39 -89 60 -82 48 4 -7 34 -31 67 -54 53 -37 77 -65 66 -76 -2 -2 -37
21 -77 52 -41 30 -77 55 -81 55 -5 0 -8 18 -8 41 0 46 -4 47 92 -23z m2224
-94 c-6 -81 -42 -214 -71 -264 -18 -31 -18 -31 0 63 8 43 14 100 14 125 l-1
47 -8 -55 c-19 -131 -33 -200 -42 -200 -5 0 -23 30 -41 68 -27 57 -32 81 -35
157 l-4 90 29 -27 c16 -16 34 -28 40 -28 5 0 31 27 57 60 26 33 52 57 58 54 7
-5 9 -36 4 -90z m1015 14 c-87 -132 -150 -309 -158 -443 -11 -179 46 -260 162
-231 54 13 152 112 189 189 20 43 31 57 43 53 8 -3 32 -9 54 -12 21 -4 39 -8
39 -11 0 -2 -17 -38 -39 -81 -90 -180 -209 -293 -346 -329 l-50 -13 64 5 c63
5 64 5 40 -13 -13 -10 -52 -37 -86 -60 -61 -42 -62 -42 -95 -26 l-33 15 5 342
5 342 36 75 c24 51 59 100 108 153 40 42 75 77 78 77 3 0 -5 -15 -16 -32z
m-1251 -54 c0 -60 -30 -174 -61 -236 -11 -21 -21 -38 -22 -38 -2 0 5 30 14 68
10 37 18 81 18 97 0 17 -11 -17 -25 -75 -13 -58 -26 -111 -29 -117 -13 -36
-71 13 -103 87 -11 25 -23 82 -27 128 -7 77 -6 82 12 82 15 0 19 -6 16 -27 -2
-16 0 -48 6 -73 9 -45 9 -45 10 25 l1 70 88 32 c48 17 90 31 95 32 4 1 7 -24
7 -55z m2031 -140 c-18 -140 -24 -161 -43 -176 -13 -10 -75 -54 -138 -97 -63
-44 -140 -97 -170 -118 -30 -22 -61 -43 -68 -47 -7 -4 1 18 19 49 18 31 42 82
54 112 18 43 32 61 64 80 23 13 41 21 41 18 0 -3 -11 -28 -25 -55 -37 -73 -23
-61 21 18 34 61 104 162 104 150 0 -3 -6 -21 -14 -39 -34 -83 -23 -76 25 16
28 55 66 125 84 156 18 30 38 73 46 95 22 64 22 13 0 -162z m-3943 46 c3 -9
-9 -4 -29 12 -57 47 -129 98 -129 94 0 -7 24 -29 93 -81 36 -27 66 -58 66 -67
1 -13 -23 1 -84 48 -77 59 -85 69 -85 100 l0 34 82 -63 c45 -34 84 -69 86 -77z
m1081 76 c-10 -8 -189 -14 -189 -5 0 5 43 9 97 9 53 0 94 -2 92 -4z m496 -20
c29 -29 29 -30 58 -221 l23 -150 30 -6 c16 -4 71 -7 122 -8 l94 -1 -21 -32
-20 -33 -128 -5 c-78 -3 -127 -9 -126 -15 2 -6 56 -12 123 -15 l121 -5 120
-265 c66 -146 128 -285 139 -310 10 -25 38 -87 63 -138 26 -51 43 -100 40
-108 -4 -11 -19 -14 -61 -12 l-56 3 -4 40 c-10 119 -75 288 -139 364 l-29 34
-36 -35 -37 -34 20 -30 c58 -85 103 -199 114 -288 l7 -56 -45 0 c-45 0 -46 1
-53 38 -16 94 -68 227 -100 253 -13 10 -21 7 -51 -23 l-36 -36 22 -37 c25 -43
61 -145 61 -175 0 -19 -5 -21 -47 -18 -46 3 -47 4 -55 43 -9 45 -38 115 -48
115 -3 0 -21 -16 -40 -35 -32 -33 -33 -36 -22 -73 16 -54 18 -52 -35 -52 -44
0 -49 3 -63 32 -23 48 -63 73 -119 73 -56 0 -94 -22 -123 -71 -18 -31 -24 -34
-64 -34 -48 0 -51 4 -30 55 15 34 14 35 -22 69 -26 25 -40 32 -48 25 -16 -13
-44 -95 -44 -126 0 -21 -4 -23 -51 -23 l-51 0 7 43 c4 23 22 75 41 116 l35 75
-35 34 c-19 19 -39 31 -45 28 -29 -18 -90 -167 -105 -258 -7 -37 -8 -38 -51
-38 -54 0 -55 7 -26 123 23 89 52 154 91 209 l29 39 -40 36 -40 36 -17 -24
c-72 -101 -124 -223 -137 -324 -12 -98 -10 -95 -64 -95 -69 0 -77 14 -45 81
15 30 43 92 64 139 36 82 172 380 247 543 l36 77 124 0 c95 0 124 3 120 13 -3
9 -38 12 -128 13 l-124 2 -23 33 -23 34 118 6 c65 4 121 7 124 8 4 0 10 29 13
64 10 90 35 237 47 274 19 59 33 63 242 63 185 0 188 0 212 -24z m-505 -6 c0
-6 -38 -9 -97 -8 l-98 2 70 6 c114 10 125 10 125 0z m-45 -41 c-56 -11 -145
-11 -145 1 0 6 37 10 93 9 76 -1 85 -3 52 -10z m-1092 -92 c66 -51 77 -64 77
-89 0 -35 12 -40 -109 47 -62 44 -70 54 -71 83 0 39 -3 40 103 -41z m1106 1
c0 -13 -6 -59 -12 -103 l-12 -80 -112 -5 c-82 -4 -116 -9 -126 -20 -8 -8 -104
-192 -213 -407 l-199 -393 -24 25 -24 24 42 91 c37 79 41 94 29 110 -7 10 -73
83 -147 162 -74 79 -166 177 -203 218 -38 41 -77 83 -86 93 -11 12 -18 41 -20
89 l-4 71 47 -34 c25 -18 77 -67 113 -109 37 -41 101 -111 142 -155 41 -44
106 -114 143 -155 67 -74 67 -74 86 -55 18 18 139 234 284 506 l57 107 77 11
c43 7 94 16 113 20 19 5 38 9 43 10 4 1 7 -9 6 -21z m1828 -95 c-3 -10 -5 -4
-5 12 0 17 2 24 5 18 2 -7 2 -21 0 -30z m-3002 15 c11 -36 15 -118 6 -118 -11
0 -17 21 -24 88 -5 38 8 60 18 30z m55 -106 c0 -60 -1 -65 -14 -46 -8 11 -15
42 -16 69 -2 68 -2 69 15 55 11 -9 15 -32 15 -78z m3256 -70 c22 -19 36 -23
76 -20 26 1 48 2 48 0 0 -15 -37 -53 -61 -62 -26 -11 -33 -11 -47 4 -9 9 -22
31 -29 49 -11 30 -12 30 -12 7 -1 -31 24 -69 53 -80 19 -7 20 -9 3 -15 -24
-10 -64 28 -77 74 -5 20 -10 61 -10 91 l1 55 14 -40 c8 -22 26 -51 41 -63z
m394 43 c0 -3 -13 -32 -30 -65 -43 -84 -130 -206 -163 -225 -25 -15 -23 -11
18 48 39 57 74 124 113 220 8 19 19 27 37 27 14 0 25 -2 25 -5z m-2730 -123
c0 -16 -36 -99 -125 -292 -35 -74 -93 -202 -130 -285 -81 -180 -105 -228 -111
-223 -2 3 34 96 82 207 47 112 84 205 81 207 -3 4 -22 -35 -87 -181 -78 -174
-94 -205 -102 -205 -10 0 -3 31 17 70 28 54 106 243 102 246 -2 2 -35 -61 -72
-141 -61 -129 -85 -167 -85 -135 0 6 89 188 197 405 l197 394 18 -27 c10 -15
18 -33 18 -40z m1274 -324 c108 -213 196 -394 196 -403 0 -38 -25 -2 -82 122
-34 73 -64 131 -66 129 -2 -2 22 -64 53 -137 32 -74 59 -140 62 -146 3 -7 1
-13 -4 -13 -10 0 -50 83 -143 292 -48 107 -67 129 -24 27 14 -35 41 -100 59
-144 18 -44 44 -106 59 -137 14 -32 22 -59 17 -62 -4 -3 -27 39 -51 92 -24 53
-67 149 -96 212 -29 63 -91 200 -137 304 l-85 189 21 33 c12 18 22 32 23 31 1
-1 89 -176 198 -389z m-2194 341 c0 -6 -4 -7 -10 -4 -5 3 -10 11 -10 16 0 6 5
7 10 4 6 -3 10 -11 10 -16z m231 -235 c112 -118 205 -220 207 -225 2 -5 -11
-40 -29 -79 l-32 -70 -107 112 c-144 152 -202 217 -218 242 -8 12 52 -46 132
-128 80 -81 146 -144 146 -138 0 5 -7 16 -17 23 -30 25 -273 297 -273 306 1 4
70 -64 155 -152 85 -88 154 -157 155 -153 0 4 -6 13 -12 20 -7 7 -58 63 -113
123 -55 60 -117 128 -137 150 -21 22 -38 45 -37 50 0 6 72 -64 161 -155 88
-91 155 -156 147 -145 -18 25 -191 218 -277 308 -36 37 -63 70 -60 73 3 3 52
-44 109 -103 229 -238 309 -313 168 -158 -135 149 -187 205 -231 251 -43 47
-55 64 -44 64 2 0 95 -97 207 -216z m-231 185 c0 -6 -4 -7 -10 -4 -5 3 -10 11
-10 16 0 6 5 7 10 4 6 -3 10 -11 10 -16z m-2 -54 c-3 -3 -9 2 -12 12 -6 14 -5
15 5 6 7 -7 10 -15 7 -18z m-41 -7 c-3 -8 -6 -5 -6 6 -1 11 2 17 5 13 3 -3 4
-12 1 -19z m83 -29 c0 -6 -4 -7 -10 -4 -5 3 -10 11 -10 16 0 6 5 7 10 4 6 -3
10 -11 10 -16z m-45 -39 c3 -5 1 -10 -4 -10 -6 0 -11 5 -11 10 0 6 2 10 4 10
3 0 8 -4 11 -10z m33 -38 c6 -18 -15 -14 -22 4 -4 10 -1 14 6 12 6 -2 14 -10
16 -16z"/>
<path d="M2412 7160 c0 -8 8 -37 18 -65 10 -27 18 -43 18 -35 0 8 -8 38 -18
65 -10 28 -18 43 -18 35z"/>
<path d="M7847 7035 c-36 -25 -45 -35 -29 -35 8 1 79 60 71 60 -2 0 -21 -11
-42 -25z"/>
<path d="M6720 7067 c-147 -82 -204 -123 -277 -201 -127 -137 -225 -361 -222
-511 1 -32 3 -27 14 31 17 93 40 173 72 243 l25 56 12 -48 c19 -70 24 -66 18
13 -4 64 -2 73 23 112 67 101 189 205 358 304 118 69 101 70 -23 1z"/>
<path d="M6126 5363 c-6 -14 -5 -15 5 -6 7 7 10 15 7 18 -3 3 -9 -2 -12 -12z"/>
<path d="M3160 7215 c0 -19 43 -171 51 -179 9 -10 6 5 -22 108 -17 63 -29 92
-29 71z"/>
<path d="M2741 6931 c-1 -7 5 -39 13 -70 8 -31 22 -91 32 -134 9 -43 21 -80
25 -82 8 -5 -8 68 -45 210 -14 50 -25 84 -25 76z"/>
<path d="M1966 7270 c5 -77 70 -661 123 -1125 69 -591 101 -863 109 -921 7
-55 18 -75 117 -220 203 -298 307 -445 313 -440 7 7 -61 116 -180 286 -55 80
-129 186 -162 235 l-62 90 -17 150 c-10 83 -33 278 -52 435 -19 157 -57 481
-85 720 -82 712 -120 1002 -104 790z"/>
<path d="M2285 6419 c4 -35 10 -98 15 -139 5 -41 7 -76 5 -78 -2 -2 -31 18
-64 44 -59 46 -62 47 -76 28 -8 -10 -15 -24 -15 -30 0 -6 34 -37 74 -70 41
-32 75 -63 75 -69 1 -5 -26 -44 -59 -85 -33 -41 -60 -80 -60 -87 0 -12 31 -33
47 -33 4 1 26 25 48 55 22 30 43 55 46 55 6 0 29 -194 29 -248 0 -19 4 -32 9
-30 10 3 201 239 201 248 0 3 -34 32 -75 65 -41 33 -74 65 -74 70 -1 6 26 44
59 85 33 41 60 77 60 80 -1 6 -228 194 -241 199 -7 2 -8 -20 -4 -60z m133
-128 l23 -20 -28 -36 c-15 -19 -31 -35 -35 -35 -5 0 -8 19 -8 43 0 23 -3 53
-7 66 -5 21 -4 22 13 12 10 -6 29 -20 42 -30z m21 -290 l34 -28 -28 -37 c-15
-20 -31 -36 -36 -36 -5 0 -9 19 -9 43 0 23 -3 52 -6 65 -8 29 4 28 45 -7z"/>
<path d="M2608 5691 c-170 -67 -311 -232 -347 -409 -18 -89 -17 -92 32 -92
l44 0 12 66 c14 78 44 140 101 213 44 56 137 122 198 142 51 16 56 22 48 63
-8 42 -19 44 -88 17z"/>
<path d="M2802 5660 c0 -14 2 -19 5 -12 2 6 2 18 0 25 -3 6 -5 1 -5 -13z"/>
<path d="M2811 5617 c-1 -23 68 -449 74 -456 10 -9 4 39 -25 209 -36 214 -47
271 -49 247z"/>
<path d="M2645 5526 c-114 -53 -212 -183 -223 -296 l-5 -50 42 0 c36 0 41 3
47 28 21 102 90 194 176 238 44 22 48 27 42 52 -13 62 -10 61 -79 28z"/>
<path d="M2795 5460 c13 -102 43 -265 44 -241 1 29 -39 284 -46 291 -3 3 -2
-20 2 -50z"/>
<path d="M2695 5364 c-45 -23 -72 -52 -94 -100 -32 -67 -29 -84 17 -84 34 0
39 4 60 43 12 24 36 51 52 60 16 10 27 23 25 30 -2 7 -6 24 -9 40 -7 31 -11
32 -51 11z"/>
<path d="M2772 5340 c0 -14 2 -19 5 -12 2 6 2 18 0 25 -3 6 -5 1 -5 -13z"/>
<path d="M2782 5270 c0 -14 2 -19 5 -12 2 6 2 18 0 25 -3 6 -5 1 -5 -13z"/>
<path d="M2792 5210 c0 -14 2 -19 5 -12 2 6 2 18 0 25 -3 6 -5 1 -5 -13z"/>
<path d="M2376 5093 c9 -16 49 -73 88 -128 38 -55 88 -126 110 -157 45 -66 63
-70 21 -6 -50 76 -226 318 -232 318 -3 0 3 -12 13 -27z"/>
<path d="M2550 5043 c35 -62 90 -142 90 -130 0 10 -110 187 -117 187 -3 0 10
-26 27 -57z"/>
<path d="M2481 5043 c49 -81 117 -179 135 -193 10 -8 -19 40 -65 108 -79 117
-118 164 -70 85z"/>
<path d="M3921 6514 c0 -11 3 -14 6 -6 3 7 2 16 -1 19 -3 4 -6 -2 -5 -13z"/>
<path d="M3932 6475 c0 -11 6 -42 13 -70 7 -27 13 -41 13 -30 0 11 -6 43 -13
70 -7 28 -13 41 -13 30z"/>
<path d="M3961 6334 c0 -11 3 -14 6 -6 3 7 2 16 -1 19 -3 4 -6 -2 -5 -13z"/>
<path d="M5252 7030 c0 -14 2 -19 5 -12 2 6 2 18 0 25 -3 6 -5 1 -5 -13z"/>
<path d="M6684 6124 c-86 -51 -152 -104 -217 -170 -83 -85 -70 -91 16 -8 81
79 137 124 215 173 45 29 60 41 49 41 -2 0 -30 -16 -63 -36z"/>
<path d="M6730 6037 c-101 -46 -185 -95 -177 -103 3 -3 25 7 49 22 23 15 88
49 143 75 125 60 113 64 -15 6z"/>
<path d="M2871 6304 c0 -11 3 -14 6 -6 3 7 2 16 -1 19 -3 4 -6 -2 -5 -13z"/>
<path d="M2882 6250 c0 -14 2 -19 5 -12 2 6 2 18 0 25 -3 6 -5 1 -5 -13z"/>
<path d="M2890 6207 c0 -28 52 -288 57 -283 5 4 -46 288 -53 295 -2 2 -4 -3
-4 -12z"/>
<path d="M2942 6200 c0 -14 2 -19 5 -12 2 6 2 18 0 25 -3 6 -5 1 -5 -13z"/>
<path d="M2952 6155 c-1 -11 7 -60 17 -110 10 -49 19 -81 19 -70 1 11 -7 61
-17 110 -11 50 -19 81 -19 70z"/>
<path d="M8071 5764 c0 -11 3 -14 6 -6 3 7 2 16 -1 19 -3 4 -6 -2 -5 -13z"/>
<path d="M7838 5744 c-16 -8 -28 -17 -28 -21 0 -3 11 -30 25 -58 40 -84 51
-177 32 -269 -22 -106 -50 -160 -125 -236 l-63 -65 11 -37 c6 -21 14 -38 19
-38 16 0 94 68 128 111 74 93 123 230 123 345 0 100 -52 271 -85 280 -6 2 -22
-4 -37 -12z"/>
<path d="M7699 5661 l-23 -18 23 -54 c20 -44 23 -66 19 -130 -5 -85 -33 -146
-88 -192 l-30 -26 17 -35 c9 -20 22 -36 29 -36 20 0 95 89 120 144 52 114 53
212 5 322 -22 48 -37 54 -72 25z"/>
<path d="M7570 5581 c-21 -17 -23 -22 -12 -46 19 -42 14 -89 -13 -130 -24 -34
-25 -39 -10 -54 8 -10 15 -23 15 -29 0 -27 31 -9 62 35 39 58 50 145 25 206
-18 42 -31 45 -67 18z"/>
<path d="M7174 5201 c4 -6 14 -11 22 -11 54 0 149 -86 188 -170 14 -30 26 -46
26 -35 -1 53 -71 155 -133 194 -38 23 -114 40 -103 22z"/>
<path d="M6570 5179 c-36 -14 -96 -75 -137 -138 -47 -73 -35 -76 16 -4 68 97
138 141 207 130 30 -5 34 -4 24 8 -14 17 -72 19 -110 4z"/>
<path d="M7139 5169 c30 -5 69 -18 86 -29 32 -20 108 -98 133 -136 7 -10 5 -4
-4 15 -23 50 -90 117 -138 141 -25 12 -60 20 -87 19 l-44 -1 54 -9z"/>
<path d="M7376 4967 c3 -10 9 -15 12 -12 3 3 0 11 -7 18 -10 9 -11 8 -5 -6z"/>
<path d="M6165 4778 c-104 -76 -237 -159 -355 -219 -98 -50 -110 -53 -178 -54
-69 0 -75 2 -98 28 -15 18 -24 23 -24 13 0 -8 14 -26 31 -40 26 -22 40 -26 95
-26 59 0 73 5 180 60 112 58 321 195 394 259 53 46 33 37 -45 -21z"/>
<path d="M5910 4653 c-186 -110 -304 -140 -355 -88 -27 26 -31 45 -14 78 10
21 10 21 -5 3 -24 -30 -19 -64 13 -97 55 -55 141 -37 319 65 86 49 156 96 142
95 -3 0 -48 -25 -100 -56z"/>
<path d="M5741 4613 c-73 -35 -126 -36 -151 -3 -23 30 -27 14 -4 -18 27 -38
106 -27 196 28 45 27 24 24 -41 -7z"/>
<path d="M7283 4195 c0 -27 2 -38 4 -22 2 15 2 37 0 50 -2 12 -4 0 -4 -28z"/>
<path d="M6966 4107 c-28 -29 -60 -69 -71 -87 -40 -68 -147 -108 -319 -120
l-111 -7 110 -2 c108 -1 217 17 240 40 19 19 27 8 9 -12 l-19 -22 30 7 c84 21
219 112 274 186 18 25 4 15 -48 -32 -70 -64 -211 -150 -211 -130 0 5 6 15 14
21 7 6 34 44 60 84 26 39 63 84 83 100 20 15 30 27 23 27 -7 0 -36 -24 -64
-53z"/>
<path d="M7271 4114 c0 -11 3 -14 6 -6 3 7 2 16 -1 19 -3 4 -6 -2 -5 -13z"/>
<path d="M5240 4092 c41 -15 48 -24 81 -90 46 -92 53 -99 33 -31 -29 97 -69
140 -131 138 -25 0 -23 -2 17 -17z"/>
<path d="M6816 3772 c46 -37 56 -83 22 -101 l-23 -11 23 6 c25 6 26 5 12 -30
-11 -29 -3 -33 26 -11 18 14 18 15 0 9 -16 -6 -17 -3 -11 17 10 33 10 30 2 71
-4 21 -18 44 -30 53 -30 21 -47 19 -21 -3z"/>
<path d="M5800 3778 c0 -4 16 -28 35 -54 39 -51 41 -59 20 -128 -8 -27 -15
-63 -14 -80 0 -31 0 -31 11 -6 5 14 10 39 9 57 0 18 4 35 10 39 8 4 9 -1 4
-17 -5 -19 -4 -21 4 -9 6 8 11 27 11 41 0 30 21 52 70 73 19 8 29 15 22 16 -7
0 -30 -9 -52 -20 -47 -24 -50 -24 -50 -6 0 14 -79 107 -80 94z"/>
<path d="M6720 3637 c0 -3 20 -12 45 -20 45 -16 65 -14 23 2 -43 16 -68 22
-68 18z"/>
<path d="M6621 3626 c2 -2 33 -16 69 -30 99 -41 96 -40 85 -28 -6 6 -40 22
-78 37 -64 24 -86 30 -76 21z"/>
<path d="M5611 3345 c-22 -65 -69 -132 -141 -198 -73 -67 -104 -108 -115 -147
-5 -17 3 -10 22 20 17 25 66 78 111 118 61 55 89 88 112 136 18 35 30 74 28
87 -3 20 -6 18 -17 -16z"/>
<path d="M5722 3123 c-26 -96 -35 -215 -24 -308 l8 -70 22 35 c20 32 22 47 21
165 -1 111 -3 122 -10 75 -5 -30 -6 -85 -3 -121 4 -44 3 -69 -5 -73 -21 -13
-18 173 5 293 7 41 12 76 10 78 -2 2 -13 -31 -24 -74z"/>
<path d="M5209 3175 c14 -28 70 -92 71 -80 0 6 -18 30 -41 55 -22 25 -36 36
-30 25z"/>
<path d="M5455 3017 c-24 -59 -34 -118 -32 -203 l2 -82 23 40 c18 29 25 57 26
104 1 35 -1 59 -6 52 -4 -7 -8 -37 -8 -65 0 -33 -4 -53 -11 -53 -16 0 -5 132
15 189 20 53 12 68 -9 18z"/>
<path d="M5224 2943 c-4 -27 -15 -72 -25 -102 -11 -30 -17 -56 -15 -58 8 -9
48 105 53 153 7 67 -3 72 -13 7z"/>
<path d="M3740 5397 c0 -3 125 -46 278 -97 l277 -91 188 -191 c123 -126 187
-198 187 -212 0 -15 -45 24 -173 152 -95 94 -176 172 -181 172 -6 0 71 -81
169 -180 131 -131 180 -187 182 -207 4 -24 -13 -11 -119 92 -191 187 -210 197
-35 19 100 -101 158 -167 155 -177 -2 -13 -14 -6 -48 26 -124 117 -144 129
-45 27 61 -63 111 -116 112 -118 1 -2 -1 47 -4 109 -7 134 12 104 -214 337
-124 127 -168 166 -201 178 -24 8 -146 47 -273 86 -126 39 -236 73 -242 75 -7
3 -13 3 -13 0z"/>
<path d="M2098 5073 c-23 -28 -128 -180 -128 -187 0 -3 7 -3 15 0 12 5 15 -3
17 -37 1 -36 3 -32 7 20 7 76 31 98 32 29 0 -23 4 -52 8 -63 5 -11 6 14 3 56
-5 90 11 141 22 68 15 -91 19 -110 23 -106 2 3 0 39 -6 82 -5 43 -6 87 -1 99
10 27 17 12 29 -69 9 -53 9 -50 4 30 -3 50 -6 91 -8 93 -1 1 -9 -6 -17 -15z"/>
<path d="M2077 4155 c5 -59 9 -72 17 -64 2 2 -2 31 -9 64 l-14 60 6 -60z"/>
<path d="M3681 4639 c-6 -18 -11 -37 -10 -43 0 -6 7 7 15 28 8 22 12 41 10 43
-2 2 -9 -10 -15 -28z"/>
<path d="M5200 4520 c0 -8 5 -22 10 -30 9 -13 10 -13 10 0 0 8 -5 22 -10 30
-9 13 -10 13 -10 0z"/>
<path d="M2892 3212 l-32 -40 0 -374 0 -375 32 -44 c17 -24 36 -47 41 -51 14
-9 93 -17 257 -27 109 -7 139 -6 158 5 l22 14 0 409 0 408 -30 41 c-33 46 -39
48 -186 56 -50 3 -122 8 -160 12 l-70 7 -32 -41z m357 -10 c33 -4 56 -13 59
-21 3 -10 0 -12 -11 -8 -8 3 -92 9 -185 13 l-170 7 -15 -24 c-12 -20 -15 -82
-16 -379 l-1 -355 30 -32 30 -33 176 -11 c134 -9 181 -9 195 0 15 9 19 8 19
-3 0 -36 -25 -39 -193 -27 -89 6 -174 11 -188 11 -18 0 -35 12 -58 40 l-31 39
-5 370 -5 369 27 32 27 32 130 -6 c72 -4 155 -11 185 -14z m41 -311 c0 -7 -23
-37 -51 -66 l-51 -54 30 -38 c16 -21 39 -47 51 -57 12 -11 21 -24 21 -30 0
-12 -161 -176 -173 -176 -4 0 -7 50 -5 110 2 61 -1 110 -6 110 -5 0 -18 -10
-30 -23 -11 -12 -31 -31 -43 -41 -21 -17 -22 -17 -33 4 -11 20 -6 28 45 80
l58 59 -58 66 c-54 61 -57 67 -42 83 16 15 20 13 60 -26 23 -23 46 -42 50 -42
4 0 7 51 7 113 l0 112 85 -86 c47 -47 85 -92 85 -98z"/>
<path d="M3170 2896 l0 -59 28 24 c15 13 28 24 29 24 1 0 -12 16 -28 35 l-28
35 -1 -59z"/>
<path d="M3168 2648 c-2 -29 -3 -55 -1 -57 2 -3 17 8 34 25 l29 30 -29 28 -29
28 -4 -54z"/>
<path d="M2820 2218 c1 -175 110 -370 265 -470 61 -40 155 -72 238 -82 l47 -6
0 43 0 43 -64 11 c-126 21 -222 81 -300 183 -54 73 -83 147 -98 252 l-11 78
-39 0 -38 0 0 -52z"/>
<path d="M2983 2194 c13 -165 149 -317 315 -353 74 -15 72 -16 72 33 l0 44
-42 7 c-41 7 -116 41 -149 67 -8 7 -31 34 -51 59 -33 44 -50 90 -63 172 -6 36
-7 37 -47 37 l-41 0 6 -66z"/>
<path d="M3140 2218 c1 -76 77 -174 159 -203 66 -23 71 -21 71 28 0 42 -2 44
-38 55 -50 15 -89 58 -100 107 -7 38 -10 40 -50 43 -42 3 -42 3 -42 -30z"/>
<path d="M3307 2243 c-14 -14 27 -73 50 -73 10 0 13 10 11 36 -3 32 -7 37 -30
40 -14 1 -29 0 -31 -3z"/>
<path d="M2945 1754 c47 -47 465 -325 465 -310 0 5 -367 255 -454 310 -31 19
-31 19 -11 0z"/>
<path d="M7115 3334 c-11 -9 -28 -21 -38 -28 -16 -12 -16 -16 -2 -56 36 -103
5 -223 -81 -307 -29 -28 -69 -56 -88 -63 -35 -11 -36 -13 -36 -61 0 -60 8 -62
97 -19 79 37 140 99 183 186 33 65 35 75 35 169 0 73 -5 113 -18 148 -21 52
-23 53 -52 31z"/>
<path d="M6943 3211 c-32 -23 -40 -35 -41 -62 0 -18 -10 -45 -21 -60 -22 -29
-30 -112 -12 -123 16 -10 90 53 112 96 23 45 30 131 12 162 -8 15 -13 14 -50
-13z"/>
<path d="M7491 2664 c0 -11 3 -14 6 -6 3 7 2 16 -1 19 -3 4 -6 -2 -5 -13z"/>
<path d="M3090 4167 c0 -18 5 -58 10 -88 6 -30 12 -77 14 -104 3 -28 7 -72 11
-98 5 -39 4 -47 -7 -41 -7 4 -5 -2 4 -13 10 -11 20 -35 22 -54 2 -19 4 -37 5
-41 0 -5 6 -8 12 -8 6 0 45 -26 87 -58 135 -103 209 -155 172 -122 -35 32 -52
45 -188 150 -43 33 -72 62 -72 73 0 22 1 22 113 -65 48 -38 87 -65 86 -61 0 5
-47 46 -105 92 -68 54 -104 90 -104 103 0 22 5 20 70 -31 25 -19 52 -39 60
-44 24 -15 -62 61 -98 86 -31 22 -50 53 -38 64 3 4 16 -2 29 -13 51 -46 58
-43 10 3 -29 27 -53 55 -53 61 0 17 7 15 48 -14 36 -25 35 -25 -5 12 -31 28
-44 49 -47 74 -9 66 -28 170 -32 170 -2 0 -4 -15 -4 -33z"/>
<path d="M3146 4161 c23 -21 320 -236 416 -300 41 -28 35 -8 99 -344 44 -230
64 -291 30 -91 -37 216 -81 418 -94 430 -22 22 -445 314 -453 314 -4 0 -4 -4
2 -9z"/>
<path d="M4062 3430 c0 -14 2 -19 5 -12 2 6 2 18 0 25 -3 6 -5 1 -5 -13z"/>
<path d="M2402 3740 c0 -14 2 -19 5 -12 2 6 2 18 0 25 -3 6 -5 1 -5 -13z"/>
<path d="M2531 3024 c0 -11 3 -14 6 -6 3 7 2 16 -1 19 -3 4 -6 -2 -5 -13z"/>
<path d="M4425 3509 c-153 -97 -215 -136 -330 -210 -55 -35 -114 -74 -130 -87
-54 -42 9 -5 220 126 297 186 355 224 355 233 0 12 6 16 -115 -62z"/>
<path d="M4969 2910 c46 -23 85 -39 87 -37 4 4 -128 66 -156 73 -8 2 23 -14
69 -36z"/>
<path d="M7825 3403 c-22 -46 -30 -119 -17 -153 8 -20 9 -12 10 40 0 37 7 81
17 104 21 50 13 58 -10 9z"/>
<path d="M5240 3305 c0 -26 92 -106 106 -92 3 3 -8 12 -24 21 -16 8 -41 29
-56 46 -14 18 -26 29 -26 25z"/>
<path d="M4910 3190 c41 -22 79 -39 83 -37 10 3 -133 77 -148 77 -5 0 24 -18
65 -40z"/>
<path d="M6492 2540 c0 -14 2 -19 5 -12 2 6 2 18 0 25 -3 6 -5 1 -5 -13z"/>
<path d="M6561 2474 c0 -11 3 -14 6 -6 3 7 2 16 -1 19 -3 4 -6 -2 -5 -13z"/>
<path d="M5951 2026 c9 -9 25 -18 37 -19 19 -1 22 -7 22 -43 0 -72 21 -195 42
-253 39 -104 126 -162 194 -129 38 18 74 74 73 112 l-1 31 -11 -33 c-15 -50
-59 -92 -95 -92 -94 0 -164 132 -179 343 -6 87 -6 87 -34 87 -15 0 -36 3 -46
6 -17 6 -17 5 -2 -10z"/>
<path d="M5700 2017 c0 -16 29 -63 54 -86 15 -14 38 -24 55 -24 28 0 29 -3 35
-56 8 -65 37 -194 42 -188 3 2 -2 44 -11 92 -8 48 -15 109 -15 135 l0 48 -39
-5 c-40 -5 -54 4 -106 73 -8 10 -15 15 -15 11z"/>
<path d="M6317 1898 c-52 -53 -77 -105 -77 -162 0 -28 6 -31 30 -16 12 8 12
10 1 10 -10 0 -12 9 -6 37 10 55 32 93 83 141 24 23 39 42 33 42 -7 0 -36 -24
-64 -52z"/>
<path d="M6057 1887 c5 -63 38 -149 65 -173 18 -16 17 -14 -5 21 -22 34 -39
84 -60 180 -3 11 -3 -2 0 -28z"/>
<path d="M5885 1812 c3 -35 12 -90 20 -121 17 -65 63 -176 71 -169 2 3 -5 27
-16 53 -26 60 -60 189 -61 229 0 17 -5 40 -10 51 -6 14 -8 1 -4 -43z"/>
<path d="M6497 1770 c-3 -14 -8 -52 -11 -85 -3 -33 -12 -80 -21 -104 -8 -24
-13 -46 -10 -49 11 -11 37 74 46 154 10 81 7 135 -4 84z"/>
<path d="M3670 3016 c0 -2 8 -10 18 -17 15 -13 16 -12 3 4 -13 16 -21 21 -21
13z"/>
<path d="M5822 2630 c-2 -52 -15 -158 -28 -225 -4 -22 -2 -26 5 -16 15 23 33
170 29 236 l-4 60 -2 -55z"/>
<path d="M5572 2700 c0 -14 2 -19 5 -12 2 6 2 18 0 25 -3 6 -5 1 -5 -13z"/>
<path d="M5581 2574 c0 -49 4 -98 9 -109 6 -12 7 20 3 85 -3 58 -7 107 -9 109
-2 2 -4 -36 -3 -85z"/>
<path d="M5320 2482 l5 -167 3 159 c1 88 -1 163 -5 167 -5 5 -6 -67 -3 -159z"/>
<path d="M5353 2380 c0 -30 2 -43 4 -27 2 15 2 39 0 55 -2 15 -4 2 -4 -28z"/>
<path d="M5622 2220 c0 -14 2 -19 5 -12 2 6 2 18 0 25 -3 6 -5 1 -5 -13z"/>
<path d="M5497 2178 c-2 -18 -1 -51 3 -73 7 -35 8 -31 9 33 1 77 -3 92 -12 40z"/>
<path d="M5040 2189 c-76 -30 -110 -109 -110 -253 0 -111 12 -156 52 -202 39
-45 67 -56 140 -55 74 0 123 23 156 74 26 39 27 46 27 181 0 131 -2 144 -24
183 -32 55 -87 83 -162 82 -30 0 -65 -5 -79 -10z m150 -204 l-44 -45 44 -45
44 -45 -36 -37 c-19 -21 -46 -50 -58 -65 -13 -16 -27 -28 -31 -28 -5 0 -9 37
-11 82 l-3 82 -34 -32 c-33 -30 -51 -33 -51 -9 0 6 19 30 41 54 l42 42 -42 38
c-22 22 -41 44 -41 50 0 27 24 23 56 -8 l34 -33 0 89 0 90 67 -67 67 -68 -44
-45z"/>
<path d="M5140 2030 l0 -44 22 22 22 22 -22 22 -22 22 0 -44z"/>
<path d="M5140 1850 l0 -44 22 22 22 22 -22 22 -22 22 0 -44z"/>
<path d="M4960 1595 c-111 -25 -251 -100 -343 -184 l-27 -25 32 -33 c18 -18
36 -33 40 -33 5 0 34 21 66 47 63 52 168 103 252 124 30 8 98 13 150 13 144
-2 279 -52 392 -145 26 -22 51 -39 55 -39 5 0 24 15 42 34 l32 33 -53 47 c-61
53 -184 120 -272 148 -83 26 -277 33 -366 13z"/>
<path d="M4990 1394 c-99 -26 -250 -116 -250 -149 0 -8 16 -26 35 -41 l36 -27
40 32 c22 18 65 44 97 59 51 24 68 27 172 27 104 0 121 -3 172 -27 32 -15 75
-41 97 -59 l40 -32 36 27 c19 15 35 33 35 40 0 18 -82 81 -144 111 -112 54
-253 69 -366 39z"/>
<path d="M5015 1195 c-40 -16 -135 -75 -135 -86 0 -3 15 -20 33 -37 l34 -33
57 31 c90 47 184 39 268 -22 15 -11 23 -8 55 24 l37 37 -25 21 c-13 12 -49 33
-79 47 -68 33 -183 41 -245 18z"/>
<path d="M2255 8832 c-41 -14 -144 -75 -163 -95 -35 -39 -34 -68 4 -148 60
-125 86 -140 198 -115 106 25 112 23 141 -34 14 -27 25 -55 25 -62 0 -16 -60
-58 -82 -58 -9 0 -27 17 -39 38 -12 20 -24 39 -25 41 -2 2 -24 -9 -49 -23
l-45 -27 21 -41 c51 -100 104 -113 219 -52 88 46 115 74 114 122 0 41 -53 156
-91 196 -29 31 -78 34 -164 10 -32 -9 -65 -14 -73 -11 -18 7 -66 81 -66 101 0
17 59 56 84 56 9 0 26 -16 37 -35 12 -19 23 -35 25 -35 12 0 84 44 84 51 0 17
-37 84 -57 101 -22 20 -69 30 -98 20z"/>
</g>
</svg>
